<?xml version="1.0" standalone="no"?>
<!DOCTYPE svg PUBLIC "-//W3C//DTD SVG 1.1//EN" "http://www.w3.org/Graphics/SVG/1.1/DTD/svg11.dtd" >
<svg xmlns="http://www.w3.org/2000/svg" xmlns:xlink="http://www.w3.org/1999/xlink" version="1.1">
<metadata>
Created by FontForge 20220308 at Thu May 19 20:32:31 2022
 By Petra
Copyright (c) 2015, Mike Gray &#60;mgray@aph.org&#62;
</metadata>
<defs>
<font id="BrailleZephyr_6" horiz-adv-x="750" >
  <font-face 
    font-family="BrailleZephyr_6"
    font-weight="400"
    font-stretch="normal"
    units-per-em="1000"
    panose-1="1 1 1 1 1 1 1 1 1 1"
    ascent="800"
    descent="-200"
    x-height="650"
    cap-height="650"
    bbox="-750 -200 750 800"
    underline-thickness="0"
    underline-position="0"
    unicode-range="U+0020-E001"
  />
<missing-glyph 
 />
    <glyph glyph-name=".notdef" 
 />
    <glyph glyph-name="uni20" unicode=" " 
 />
    <glyph glyph-name="uniA0" unicode="&#xa0;" 
 />
    <glyph glyph-name="uniE000" unicode="&#xe000;" 
d="M210 550c0 22 18 40 40 40s40 -18 40 -40s-18 -40 -40 -40s-40 18 -40 40zM210 300c0 22 18 40 40 40s40 -18 40 -40s-18 -40 -40 -40s-40 18 -40 40zM210 50c0 22 18 40 40 40s40 -18 40 -40s-18 -40 -40 -40s-40 18 -40 40zM460 550c0 22 18 40 40 40s40 -18 40 -40
s-18 -40 -40 -40s-40 18 -40 40zM460 300c0 22 18 40 40 40s40 -18 40 -40s-18 -40 -40 -40s-40 18 -40 40zM460 50c0 22 18 40 40 40s40 -18 40 -40s-18 -40 -40 -40s-40 18 -40 40z" />
    <glyph glyph-name="uniE001" unicode="&#xe001;" 
d="M218 600c0 18 14 32 32 32s32 -14 32 -32s-14 -32 -32 -32s-32 14 -32 32zM218 400c0 18 14 32 32 32s32 -14 32 -32s-14 -32 -32 -32s-32 14 -32 32zM218 200c0 18 14 32 32 32s32 -14 32 -32s-14 -32 -32 -32s-32 14 -32 32zM468 600c0 18 14 32 32 32s32 -14 32 -32
s-14 -32 -32 -32s-32 14 -32 32zM468 400c0 18 14 32 32 32s32 -14 32 -32s-14 -32 -32 -32s-32 14 -32 32zM468 200c0 18 14 32 32 32s32 -14 32 -32s-14 -32 -32 -32s-32 14 -32 32zM218 0c0 18 14 32 32 32s32 -14 32 -32s-14 -32 -32 -32s-32 14 -32 32zM468 0
c0 18 14 32 32 32s32 -14 32 -32s-14 -32 -32 -32s-32 14 -32 32z" />
    <glyph glyph-name="uni25A1" unicode="&#x25a1;" 
d="M40 760v-920h670v920h-670zM0 800h750v-1000h-750v1000z" />
    <glyph glyph-name="uni20DE" unicode="&#x20de;" horiz-adv-x="0" 
d="M-710 760v-920h670v920h-670zM-750 800h750v-1000h-750v1000z" />
    <glyph glyph-name="uni21" unicode="!" 
d="M150 300c0 55 45 100 100 100s100 -45 100 -100s-45 -100 -100 -100s-100 45 -100 100zM150 50c0 55 45 100 100 100s100 -45 100 -100s-45 -100 -100 -100s-100 45 -100 100zM400 300c0 55 45 100 100 100s100 -45 100 -100s-45 -100 -100 -100s-100 45 -100 100z
M460 50z" />
    <glyph glyph-name="uni22" unicode="&#x22;" 
d="M150 300c0 55 45 100 100 100s100 -45 100 -100s-45 -100 -100 -100s-100 45 -100 100zM150 50c0 55 45 100 100 100s100 -45 100 -100s-45 -100 -100 -100s-100 45 -100 100zM400 300c0 55 45 100 100 100s100 -45 100 -100s-45 -100 -100 -100s-100 45 -100 100z
M400 50c0 55 45 100 100 100s100 -45 100 -100s-45 -100 -100 -100s-100 45 -100 100z" />
    <glyph glyph-name="uni26" unicode="&#x26;" 
d="M150 550c0 55 45 100 100 100s100 -45 100 -100s-45 -100 -100 -100s-100 45 -100 100zM150 300c0 55 45 100 100 100s100 -45 100 -100s-45 -100 -100 -100s-100 45 -100 100zM150 50c0 55 45 100 100 100s100 -45 100 -100s-45 -100 -100 -100s-100 45 -100 100z
M400 550c0 55 45 100 100 100s100 -45 100 -100s-45 -100 -100 -100s-100 45 -100 100zM400 50c0 55 45 100 100 100s100 -45 100 -100s-45 -100 -100 -100s-100 45 -100 100z" />
    <glyph glyph-name="uni29" unicode=")" 
d="M150 50c0 55 45 100 100 100s100 -45 100 -100s-45 -100 -100 -100s-100 45 -100 100zM400 550c0 55 45 100 100 100s100 -45 100 -100s-45 -100 -100 -100s-100 45 -100 100zM400 300c0 55 45 100 100 100s100 -45 100 -100s-45 -100 -100 -100s-100 45 -100 100z
M460 50z" />
    <glyph glyph-name="uni2A" unicode="*" 
d="M150 50c0 55 45 100 100 100s100 -45 100 -100s-45 -100 -100 -100s-100 45 -100 100zM400 300c0 55 45 100 100 100s100 -45 100 -100s-45 -100 -100 -100s-100 45 -100 100zM460 50z" />
    <glyph glyph-name="uni2C" unicode="," 
d="M150 300c0 55 45 100 100 100s100 -45 100 -100s-45 -100 -100 -100s-100 45 -100 100zM460 50z" />
    <glyph glyph-name="uni2D" unicode="-" 
d="M150 50c0 55 45 100 100 100s100 -45 100 -100s-45 -100 -100 -100s-100 45 -100 100zM400 50c0 55 45 100 100 100s100 -45 100 -100s-45 -100 -100 -100s-100 45 -100 100z" />
    <glyph glyph-name="uni2E" unicode="." 
d="M150 50c0 55 45 100 100 100s100 -45 100 -100s-45 -100 -100 -100s-100 45 -100 100zM460 50z" />
    <glyph glyph-name="uni2F" unicode="/" 
d="M150 550c0 55 45 100 100 100s100 -45 100 -100s-45 -100 -100 -100s-100 45 -100 100zM150 300c0 55 45 100 100 100s100 -45 100 -100s-45 -100 -100 -100s-100 45 -100 100zM400 300c0 55 45 100 100 100s100 -45 100 -100s-45 -100 -100 -100s-100 45 -100 100z
M400 50c0 55 45 100 100 100s100 -45 100 -100s-45 -100 -100 -100s-100 45 -100 100z" />
    <glyph glyph-name="uni3A" unicode=":" 
d="M150 300c0 55 45 100 100 100s100 -45 100 -100s-45 -100 -100 -100s-100 45 -100 100zM400 300c0 55 45 100 100 100s100 -45 100 -100s-45 -100 -100 -100s-100 45 -100 100zM460 50z" />
    <glyph glyph-name="uni3B" unicode=";" 
d="M150 300c0 55 45 100 100 100s100 -45 100 -100s-45 -100 -100 -100s-100 45 -100 100zM150 50c0 55 45 100 100 100s100 -45 100 -100s-45 -100 -100 -100s-100 45 -100 100zM460 50z" />
    <glyph glyph-name="uni3F" unicode="?" 
d="M150 300c0 55 45 100 100 100s100 -45 100 -100s-45 -100 -100 -100s-100 45 -100 100zM400 50c0 55 45 100 100 100s100 -45 100 -100s-45 -100 -100 -100s-100 45 -100 100z" />
    <glyph glyph-name="uni41" unicode="A" 
d="M150 550c0 55 45 100 100 100s100 -45 100 -100s-45 -100 -100 -100s-100 45 -100 100zM460 50z" />
    <glyph glyph-name="uni42" unicode="B" 
d="M150 550c0 55 45 100 100 100s100 -45 100 -100s-45 -100 -100 -100s-100 45 -100 100zM150 300c0 55 45 100 100 100s100 -45 100 -100s-45 -100 -100 -100s-100 45 -100 100zM460 50z" />
    <glyph glyph-name="uni43" unicode="C" 
d="M150 550c0 55 45 100 100 100s100 -45 100 -100s-45 -100 -100 -100s-100 45 -100 100zM400 550c0 55 45 100 100 100s100 -45 100 -100s-45 -100 -100 -100s-100 45 -100 100zM460 50z" />
    <glyph glyph-name="uni44" unicode="D" 
d="M150 550c0 55 45 100 100 100s100 -45 100 -100s-45 -100 -100 -100s-100 45 -100 100zM400 550c0 55 45 100 100 100s100 -45 100 -100s-45 -100 -100 -100s-100 45 -100 100zM400 300c0 55 45 100 100 100s100 -45 100 -100s-45 -100 -100 -100s-100 45 -100 100z
M460 50z" />
    <glyph glyph-name="uni45" unicode="E" 
d="M150 550c0 55 45 100 100 100s100 -45 100 -100s-45 -100 -100 -100s-100 45 -100 100zM400 300c0 55 45 100 100 100s100 -45 100 -100s-45 -100 -100 -100s-100 45 -100 100zM460 50z" />
    <glyph glyph-name="uni46" unicode="F" 
d="M150 550c0 55 45 100 100 100s100 -45 100 -100s-45 -100 -100 -100s-100 45 -100 100zM150 300c0 55 45 100 100 100s100 -45 100 -100s-45 -100 -100 -100s-100 45 -100 100zM400 550c0 55 45 100 100 100s100 -45 100 -100s-45 -100 -100 -100s-100 45 -100 100z
M460 50z" />
    <glyph glyph-name="uni47" unicode="G" 
d="M150 550c0 55 45 100 100 100s100 -45 100 -100s-45 -100 -100 -100s-100 45 -100 100zM150 300c0 55 45 100 100 100s100 -45 100 -100s-45 -100 -100 -100s-100 45 -100 100zM400 550c0 55 45 100 100 100s100 -45 100 -100s-45 -100 -100 -100s-100 45 -100 100z
M400 300c0 55 45 100 100 100s100 -45 100 -100s-45 -100 -100 -100s-100 45 -100 100zM460 50z" />
    <glyph glyph-name="uni48" unicode="H" 
d="M150 550c0 55 45 100 100 100s100 -45 100 -100s-45 -100 -100 -100s-100 45 -100 100zM150 300c0 55 45 100 100 100s100 -45 100 -100s-45 -100 -100 -100s-100 45 -100 100zM400 300c0 55 45 100 100 100s100 -45 100 -100s-45 -100 -100 -100s-100 45 -100 100z
M460 50z" />
    <glyph glyph-name="uni49" unicode="I" 
d="M150 300c0 55 45 100 100 100s100 -45 100 -100s-45 -100 -100 -100s-100 45 -100 100zM400 550c0 55 45 100 100 100s100 -45 100 -100s-45 -100 -100 -100s-100 45 -100 100zM460 50z" />
    <glyph glyph-name="uni4A" unicode="J" 
d="M150 300c0 55 45 100 100 100s100 -45 100 -100s-45 -100 -100 -100s-100 45 -100 100zM400 550c0 55 45 100 100 100s100 -45 100 -100s-45 -100 -100 -100s-100 45 -100 100zM400 300c0 55 45 100 100 100s100 -45 100 -100s-45 -100 -100 -100s-100 45 -100 100z
M460 50z" />
    <glyph glyph-name="uni4B" unicode="K" 
d="M150 550c0 55 45 100 100 100s100 -45 100 -100s-45 -100 -100 -100s-100 45 -100 100zM150 50c0 55 45 100 100 100s100 -45 100 -100s-45 -100 -100 -100s-100 45 -100 100zM460 50z" />
    <glyph glyph-name="uni4C" unicode="L" 
d="M150 550c0 55 45 100 100 100s100 -45 100 -100s-45 -100 -100 -100s-100 45 -100 100zM150 300c0 55 45 100 100 100s100 -45 100 -100s-45 -100 -100 -100s-100 45 -100 100zM150 50c0 55 45 100 100 100s100 -45 100 -100s-45 -100 -100 -100s-100 45 -100 100z
M460 50z" />
    <glyph glyph-name="uni4D" unicode="M" 
d="M150 550c0 55 45 100 100 100s100 -45 100 -100s-45 -100 -100 -100s-100 45 -100 100zM150 50c0 55 45 100 100 100s100 -45 100 -100s-45 -100 -100 -100s-100 45 -100 100zM400 550c0 55 45 100 100 100s100 -45 100 -100s-45 -100 -100 -100s-100 45 -100 100z
M460 50z" />
    <glyph glyph-name="uni4E" unicode="N" 
d="M150 550c0 55 45 100 100 100s100 -45 100 -100s-45 -100 -100 -100s-100 45 -100 100zM150 50c0 55 45 100 100 100s100 -45 100 -100s-45 -100 -100 -100s-100 45 -100 100zM400 550c0 55 45 100 100 100s100 -45 100 -100s-45 -100 -100 -100s-100 45 -100 100z
M400 300c0 55 45 100 100 100s100 -45 100 -100s-45 -100 -100 -100s-100 45 -100 100zM460 50z" />
    <glyph glyph-name="uni4F" unicode="O" 
d="M150 550c0 55 45 100 100 100s100 -45 100 -100s-45 -100 -100 -100s-100 45 -100 100zM150 50c0 55 45 100 100 100s100 -45 100 -100s-45 -100 -100 -100s-100 45 -100 100zM400 300c0 55 45 100 100 100s100 -45 100 -100s-45 -100 -100 -100s-100 45 -100 100z
M460 50z" />
    <glyph glyph-name="uni50" unicode="P" 
d="M150 550c0 55 45 100 100 100s100 -45 100 -100s-45 -100 -100 -100s-100 45 -100 100zM150 300c0 55 45 100 100 100s100 -45 100 -100s-45 -100 -100 -100s-100 45 -100 100zM150 50c0 55 45 100 100 100s100 -45 100 -100s-45 -100 -100 -100s-100 45 -100 100z
M400 550c0 55 45 100 100 100s100 -45 100 -100s-45 -100 -100 -100s-100 45 -100 100zM460 50z" />
    <glyph glyph-name="uni51" unicode="Q" 
d="M150 550c0 55 45 100 100 100s100 -45 100 -100s-45 -100 -100 -100s-100 45 -100 100zM150 300c0 55 45 100 100 100s100 -45 100 -100s-45 -100 -100 -100s-100 45 -100 100zM150 50c0 55 45 100 100 100s100 -45 100 -100s-45 -100 -100 -100s-100 45 -100 100z
M400 550c0 55 45 100 100 100s100 -45 100 -100s-45 -100 -100 -100s-100 45 -100 100zM400 300c0 55 45 100 100 100s100 -45 100 -100s-45 -100 -100 -100s-100 45 -100 100zM460 50z" />
    <glyph glyph-name="uni52" unicode="R" 
d="M150 550c0 55 45 100 100 100s100 -45 100 -100s-45 -100 -100 -100s-100 45 -100 100zM150 300c0 55 45 100 100 100s100 -45 100 -100s-45 -100 -100 -100s-100 45 -100 100zM150 50c0 55 45 100 100 100s100 -45 100 -100s-45 -100 -100 -100s-100 45 -100 100z
M400 300c0 55 45 100 100 100s100 -45 100 -100s-45 -100 -100 -100s-100 45 -100 100zM460 50z" />
    <glyph glyph-name="uni53" unicode="S" 
d="M150 300c0 55 45 100 100 100s100 -45 100 -100s-45 -100 -100 -100s-100 45 -100 100zM150 50c0 55 45 100 100 100s100 -45 100 -100s-45 -100 -100 -100s-100 45 -100 100zM400 550c0 55 45 100 100 100s100 -45 100 -100s-45 -100 -100 -100s-100 45 -100 100z
M460 50z" />
    <glyph glyph-name="uni54" unicode="T" 
d="M150 300c0 55 45 100 100 100s100 -45 100 -100s-45 -100 -100 -100s-100 45 -100 100zM150 50c0 55 45 100 100 100s100 -45 100 -100s-45 -100 -100 -100s-100 45 -100 100zM400 550c0 55 45 100 100 100s100 -45 100 -100s-45 -100 -100 -100s-100 45 -100 100z
M400 300c0 55 45 100 100 100s100 -45 100 -100s-45 -100 -100 -100s-100 45 -100 100zM460 50z" />
    <glyph glyph-name="uni55" unicode="U" 
d="M150 550c0 55 45 100 100 100s100 -45 100 -100s-45 -100 -100 -100s-100 45 -100 100zM150 50c0 55 45 100 100 100s100 -45 100 -100s-45 -100 -100 -100s-100 45 -100 100zM400 50c0 55 45 100 100 100s100 -45 100 -100s-45 -100 -100 -100s-100 45 -100 100z" />
    <glyph glyph-name="uni56" unicode="V" 
d="M150 550c0 55 45 100 100 100s100 -45 100 -100s-45 -100 -100 -100s-100 45 -100 100zM150 300c0 55 45 100 100 100s100 -45 100 -100s-45 -100 -100 -100s-100 45 -100 100zM150 50c0 55 45 100 100 100s100 -45 100 -100s-45 -100 -100 -100s-100 45 -100 100z
M400 50c0 55 45 100 100 100s100 -45 100 -100s-45 -100 -100 -100s-100 45 -100 100z" />
    <glyph glyph-name="uni57" unicode="W" 
d="M150 300c0 55 45 100 100 100s100 -45 100 -100s-45 -100 -100 -100s-100 45 -100 100zM400 550c0 55 45 100 100 100s100 -45 100 -100s-45 -100 -100 -100s-100 45 -100 100zM400 300c0 55 45 100 100 100s100 -45 100 -100s-45 -100 -100 -100s-100 45 -100 100z
M400 50c0 55 45 100 100 100s100 -45 100 -100s-45 -100 -100 -100s-100 45 -100 100z" />
    <glyph glyph-name="uni58" unicode="X" 
d="M150 550c0 55 45 100 100 100s100 -45 100 -100s-45 -100 -100 -100s-100 45 -100 100zM150 50c0 55 45 100 100 100s100 -45 100 -100s-45 -100 -100 -100s-100 45 -100 100zM400 550c0 55 45 100 100 100s100 -45 100 -100s-45 -100 -100 -100s-100 45 -100 100z
M400 50c0 55 45 100 100 100s100 -45 100 -100s-45 -100 -100 -100s-100 45 -100 100z" />
    <glyph glyph-name="uni59" unicode="Y" 
d="M150 550c0 55 45 100 100 100s100 -45 100 -100s-45 -100 -100 -100s-100 45 -100 100zM150 50c0 55 45 100 100 100s100 -45 100 -100s-45 -100 -100 -100s-100 45 -100 100zM400 550c0 55 45 100 100 100s100 -45 100 -100s-45 -100 -100 -100s-100 45 -100 100z
M400 300c0 55 45 100 100 100s100 -45 100 -100s-45 -100 -100 -100s-100 45 -100 100zM400 50c0 55 45 100 100 100s100 -45 100 -100s-45 -100 -100 -100s-100 45 -100 100z" />
    <glyph glyph-name="uni5A" unicode="Z" 
d="M150 550c0 55 45 100 100 100s100 -45 100 -100s-45 -100 -100 -100s-100 45 -100 100zM150 50c0 55 45 100 100 100s100 -45 100 -100s-45 -100 -100 -100s-100 45 -100 100zM400 300c0 55 45 100 100 100s100 -45 100 -100s-45 -100 -100 -100s-100 45 -100 100z
M400 50c0 55 45 100 100 100s100 -45 100 -100s-45 -100 -100 -100s-100 45 -100 100z" />
    <glyph glyph-name="uni5B" unicode="[" 
d="M150 550c0 55 45 100 100 100s100 -45 100 -100s-45 -100 -100 -100s-100 45 -100 100zM150 300c0 55 45 100 100 100s100 -45 100 -100s-45 -100 -100 -100s-100 45 -100 100zM150 50c0 55 45 100 100 100s100 -45 100 -100s-45 -100 -100 -100s-100 45 -100 100z
M400 300c0 55 45 100 100 100s100 -45 100 -100s-45 -100 -100 -100s-100 45 -100 100zM400 50c0 55 45 100 100 100s100 -45 100 -100s-45 -100 -100 -100s-100 45 -100 100z" />
    <glyph glyph-name="uni5D" unicode="]" 
d="M150 300c0 55 45 100 100 100s100 -45 100 -100s-45 -100 -100 -100s-100 45 -100 100zM150 50c0 55 45 100 100 100s100 -45 100 -100s-45 -100 -100 -100s-100 45 -100 100zM400 550c0 55 45 100 100 100s100 -45 100 -100s-45 -100 -100 -100s-100 45 -100 100z
M400 300c0 55 45 100 100 100s100 -45 100 -100s-45 -100 -100 -100s-100 45 -100 100zM400 50c0 55 45 100 100 100s100 -45 100 -100s-45 -100 -100 -100s-100 45 -100 100z" />
    <glyph glyph-name="uni61" unicode="a" 
d="M150 550c0 55 45 100 100 100s100 -45 100 -100s-45 -100 -100 -100s-100 45 -100 100zM460 50z" />
    <glyph glyph-name="uni62" unicode="b" 
d="M150 550c0 55 45 100 100 100s100 -45 100 -100s-45 -100 -100 -100s-100 45 -100 100zM150 300c0 55 45 100 100 100s100 -45 100 -100s-45 -100 -100 -100s-100 45 -100 100zM460 50z" />
    <glyph glyph-name="uni63" unicode="c" 
d="M150 550c0 55 45 100 100 100s100 -45 100 -100s-45 -100 -100 -100s-100 45 -100 100zM400 550c0 55 45 100 100 100s100 -45 100 -100s-45 -100 -100 -100s-100 45 -100 100zM460 50z" />
    <glyph glyph-name="uni64" unicode="d" 
d="M150 550c0 55 45 100 100 100s100 -45 100 -100s-45 -100 -100 -100s-100 45 -100 100zM400 550c0 55 45 100 100 100s100 -45 100 -100s-45 -100 -100 -100s-100 45 -100 100zM400 300c0 55 45 100 100 100s100 -45 100 -100s-45 -100 -100 -100s-100 45 -100 100z
M460 50z" />
    <glyph glyph-name="uni65" unicode="e" 
d="M150 550c0 55 45 100 100 100s100 -45 100 -100s-45 -100 -100 -100s-100 45 -100 100zM400 300c0 55 45 100 100 100s100 -45 100 -100s-45 -100 -100 -100s-100 45 -100 100zM460 50z" />
    <glyph glyph-name="uni66" unicode="f" 
d="M150 550c0 55 45 100 100 100s100 -45 100 -100s-45 -100 -100 -100s-100 45 -100 100zM150 300c0 55 45 100 100 100s100 -45 100 -100s-45 -100 -100 -100s-100 45 -100 100zM400 550c0 55 45 100 100 100s100 -45 100 -100s-45 -100 -100 -100s-100 45 -100 100z
M460 50z" />
    <glyph glyph-name="uni67" unicode="g" 
d="M150 550c0 55 45 100 100 100s100 -45 100 -100s-45 -100 -100 -100s-100 45 -100 100zM150 300c0 55 45 100 100 100s100 -45 100 -100s-45 -100 -100 -100s-100 45 -100 100zM400 550c0 55 45 100 100 100s100 -45 100 -100s-45 -100 -100 -100s-100 45 -100 100z
M400 300c0 55 45 100 100 100s100 -45 100 -100s-45 -100 -100 -100s-100 45 -100 100zM460 50z" />
    <glyph glyph-name="uni68" unicode="h" 
d="M150 550c0 55 45 100 100 100s100 -45 100 -100s-45 -100 -100 -100s-100 45 -100 100zM150 300c0 55 45 100 100 100s100 -45 100 -100s-45 -100 -100 -100s-100 45 -100 100zM400 300c0 55 45 100 100 100s100 -45 100 -100s-45 -100 -100 -100s-100 45 -100 100z
M460 50z" />
    <glyph glyph-name="uni69" unicode="i" 
d="M150 300c0 55 45 100 100 100s100 -45 100 -100s-45 -100 -100 -100s-100 45 -100 100zM400 550c0 55 45 100 100 100s100 -45 100 -100s-45 -100 -100 -100s-100 45 -100 100zM460 50z" />
    <glyph glyph-name="uni6A" unicode="j" 
d="M150 300c0 55 45 100 100 100s100 -45 100 -100s-45 -100 -100 -100s-100 45 -100 100zM400 550c0 55 45 100 100 100s100 -45 100 -100s-45 -100 -100 -100s-100 45 -100 100zM400 300c0 55 45 100 100 100s100 -45 100 -100s-45 -100 -100 -100s-100 45 -100 100z
M460 50z" />
    <glyph glyph-name="uni6B" unicode="k" 
d="M150 550c0 55 45 100 100 100s100 -45 100 -100s-45 -100 -100 -100s-100 45 -100 100zM150 50c0 55 45 100 100 100s100 -45 100 -100s-45 -100 -100 -100s-100 45 -100 100zM460 50z" />
    <glyph glyph-name="uni6C" unicode="l" 
d="M150 550c0 55 45 100 100 100s100 -45 100 -100s-45 -100 -100 -100s-100 45 -100 100zM150 300c0 55 45 100 100 100s100 -45 100 -100s-45 -100 -100 -100s-100 45 -100 100zM150 50c0 55 45 100 100 100s100 -45 100 -100s-45 -100 -100 -100s-100 45 -100 100z
M460 50z" />
    <glyph glyph-name="uni6D" unicode="m" 
d="M150 550c0 55 45 100 100 100s100 -45 100 -100s-45 -100 -100 -100s-100 45 -100 100zM150 50c0 55 45 100 100 100s100 -45 100 -100s-45 -100 -100 -100s-100 45 -100 100zM400 550c0 55 45 100 100 100s100 -45 100 -100s-45 -100 -100 -100s-100 45 -100 100z
M460 50z" />
    <glyph glyph-name="uni6E" unicode="n" 
d="M150 550c0 55 45 100 100 100s100 -45 100 -100s-45 -100 -100 -100s-100 45 -100 100zM150 50c0 55 45 100 100 100s100 -45 100 -100s-45 -100 -100 -100s-100 45 -100 100zM400 550c0 55 45 100 100 100s100 -45 100 -100s-45 -100 -100 -100s-100 45 -100 100z
M400 300c0 55 45 100 100 100s100 -45 100 -100s-45 -100 -100 -100s-100 45 -100 100zM460 50z" />
    <glyph glyph-name="uni6F" unicode="o" 
d="M150 550c0 55 45 100 100 100s100 -45 100 -100s-45 -100 -100 -100s-100 45 -100 100zM150 50c0 55 45 100 100 100s100 -45 100 -100s-45 -100 -100 -100s-100 45 -100 100zM400 300c0 55 45 100 100 100s100 -45 100 -100s-45 -100 -100 -100s-100 45 -100 100z
M460 50z" />
    <glyph glyph-name="uni70" unicode="p" 
d="M150 550c0 55 45 100 100 100s100 -45 100 -100s-45 -100 -100 -100s-100 45 -100 100zM150 300c0 55 45 100 100 100s100 -45 100 -100s-45 -100 -100 -100s-100 45 -100 100zM150 50c0 55 45 100 100 100s100 -45 100 -100s-45 -100 -100 -100s-100 45 -100 100z
M400 550c0 55 45 100 100 100s100 -45 100 -100s-45 -100 -100 -100s-100 45 -100 100zM460 50z" />
    <glyph glyph-name="uni71" unicode="q" 
d="M150 550c0 55 45 100 100 100s100 -45 100 -100s-45 -100 -100 -100s-100 45 -100 100zM150 300c0 55 45 100 100 100s100 -45 100 -100s-45 -100 -100 -100s-100 45 -100 100zM150 50c0 55 45 100 100 100s100 -45 100 -100s-45 -100 -100 -100s-100 45 -100 100z
M400 550c0 55 45 100 100 100s100 -45 100 -100s-45 -100 -100 -100s-100 45 -100 100zM400 300c0 55 45 100 100 100s100 -45 100 -100s-45 -100 -100 -100s-100 45 -100 100zM460 50z" />
    <glyph glyph-name="uni72" unicode="r" 
d="M150 550c0 55 45 100 100 100s100 -45 100 -100s-45 -100 -100 -100s-100 45 -100 100zM150 300c0 55 45 100 100 100s100 -45 100 -100s-45 -100 -100 -100s-100 45 -100 100zM150 50c0 55 45 100 100 100s100 -45 100 -100s-45 -100 -100 -100s-100 45 -100 100z
M400 300c0 55 45 100 100 100s100 -45 100 -100s-45 -100 -100 -100s-100 45 -100 100zM460 50z" />
    <glyph glyph-name="uni73" unicode="s" 
d="M150 300c0 55 45 100 100 100s100 -45 100 -100s-45 -100 -100 -100s-100 45 -100 100zM150 50c0 55 45 100 100 100s100 -45 100 -100s-45 -100 -100 -100s-100 45 -100 100zM400 550c0 55 45 100 100 100s100 -45 100 -100s-45 -100 -100 -100s-100 45 -100 100z
M460 50z" />
    <glyph glyph-name="uni74" unicode="t" 
d="M150 300c0 55 45 100 100 100s100 -45 100 -100s-45 -100 -100 -100s-100 45 -100 100zM150 50c0 55 45 100 100 100s100 -45 100 -100s-45 -100 -100 -100s-100 45 -100 100zM400 550c0 55 45 100 100 100s100 -45 100 -100s-45 -100 -100 -100s-100 45 -100 100z
M400 300c0 55 45 100 100 100s100 -45 100 -100s-45 -100 -100 -100s-100 45 -100 100zM460 50z" />
    <glyph glyph-name="uni75" unicode="u" 
d="M150 550c0 55 45 100 100 100s100 -45 100 -100s-45 -100 -100 -100s-100 45 -100 100zM150 50c0 55 45 100 100 100s100 -45 100 -100s-45 -100 -100 -100s-100 45 -100 100zM400 50c0 55 45 100 100 100s100 -45 100 -100s-45 -100 -100 -100s-100 45 -100 100z" />
    <glyph glyph-name="uni76" unicode="v" 
d="M150 550c0 55 45 100 100 100s100 -45 100 -100s-45 -100 -100 -100s-100 45 -100 100zM150 300c0 55 45 100 100 100s100 -45 100 -100s-45 -100 -100 -100s-100 45 -100 100zM150 50c0 55 45 100 100 100s100 -45 100 -100s-45 -100 -100 -100s-100 45 -100 100z
M400 50c0 55 45 100 100 100s100 -45 100 -100s-45 -100 -100 -100s-100 45 -100 100z" />
    <glyph glyph-name="uni77" unicode="w" 
d="M150 300c0 55 45 100 100 100s100 -45 100 -100s-45 -100 -100 -100s-100 45 -100 100zM400 550c0 55 45 100 100 100s100 -45 100 -100s-45 -100 -100 -100s-100 45 -100 100zM400 300c0 55 45 100 100 100s100 -45 100 -100s-45 -100 -100 -100s-100 45 -100 100z
M400 50c0 55 45 100 100 100s100 -45 100 -100s-45 -100 -100 -100s-100 45 -100 100z" />
    <glyph glyph-name="uni78" unicode="x" 
d="M150 550c0 55 45 100 100 100s100 -45 100 -100s-45 -100 -100 -100s-100 45 -100 100zM150 50c0 55 45 100 100 100s100 -45 100 -100s-45 -100 -100 -100s-100 45 -100 100zM400 550c0 55 45 100 100 100s100 -45 100 -100s-45 -100 -100 -100s-100 45 -100 100z
M400 50c0 55 45 100 100 100s100 -45 100 -100s-45 -100 -100 -100s-100 45 -100 100z" />
    <glyph glyph-name="uni79" unicode="y" 
d="M150 550c0 55 45 100 100 100s100 -45 100 -100s-45 -100 -100 -100s-100 45 -100 100zM150 50c0 55 45 100 100 100s100 -45 100 -100s-45 -100 -100 -100s-100 45 -100 100zM400 550c0 55 45 100 100 100s100 -45 100 -100s-45 -100 -100 -100s-100 45 -100 100z
M400 300c0 55 45 100 100 100s100 -45 100 -100s-45 -100 -100 -100s-100 45 -100 100zM400 50c0 55 45 100 100 100s100 -45 100 -100s-45 -100 -100 -100s-100 45 -100 100z" />
    <glyph glyph-name="uni7A" unicode="z" 
d="M150 550c0 55 45 100 100 100s100 -45 100 -100s-45 -100 -100 -100s-100 45 -100 100zM150 50c0 55 45 100 100 100s100 -45 100 -100s-45 -100 -100 -100s-100 45 -100 100zM400 300c0 55 45 100 100 100s100 -45 100 -100s-45 -100 -100 -100s-100 45 -100 100z
M400 50c0 55 45 100 100 100s100 -45 100 -100s-45 -100 -100 -100s-100 45 -100 100z" />
    <glyph glyph-name="uni2800" unicode="&#x2800;" 
 />
    <glyph glyph-name="uni2801" unicode="&#x2801;" 
d="M150 550c0 55 45 100 100 100s100 -45 100 -100s-45 -100 -100 -100s-100 45 -100 100zM460 50z" />
    <glyph glyph-name="uni2802" unicode="&#x2802;" 
d="M150 300c0 55 45 100 100 100s100 -45 100 -100s-45 -100 -100 -100s-100 45 -100 100zM460 50z" />
    <glyph glyph-name="uni2803" unicode="&#x2803;" 
d="M150 550c0 55 45 100 100 100s100 -45 100 -100s-45 -100 -100 -100s-100 45 -100 100zM150 300c0 55 45 100 100 100s100 -45 100 -100s-45 -100 -100 -100s-100 45 -100 100zM460 50z" />
    <glyph glyph-name="uni2804" unicode="&#x2804;" 
d="M150 50c0 55 45 100 100 100s100 -45 100 -100s-45 -100 -100 -100s-100 45 -100 100zM460 50z" />
    <glyph glyph-name="uni2805" unicode="&#x2805;" 
d="M150 550c0 55 45 100 100 100s100 -45 100 -100s-45 -100 -100 -100s-100 45 -100 100zM150 50c0 55 45 100 100 100s100 -45 100 -100s-45 -100 -100 -100s-100 45 -100 100zM460 50z" />
    <glyph glyph-name="uni2806" unicode="&#x2806;" 
d="M150 300c0 55 45 100 100 100s100 -45 100 -100s-45 -100 -100 -100s-100 45 -100 100zM150 50c0 55 45 100 100 100s100 -45 100 -100s-45 -100 -100 -100s-100 45 -100 100zM460 50z" />
    <glyph glyph-name="uni2807" unicode="&#x2807;" 
d="M150 550c0 55 45 100 100 100s100 -45 100 -100s-45 -100 -100 -100s-100 45 -100 100zM150 300c0 55 45 100 100 100s100 -45 100 -100s-45 -100 -100 -100s-100 45 -100 100zM150 50c0 55 45 100 100 100s100 -45 100 -100s-45 -100 -100 -100s-100 45 -100 100z
M460 50z" />
    <glyph glyph-name="uni2808" unicode="&#x2808;" 
d="M400 550c0 55 45 100 100 100s100 -45 100 -100s-45 -100 -100 -100s-100 45 -100 100zM460 50z" />
    <glyph glyph-name="uni2809" unicode="&#x2809;" 
d="M150 550c0 55 45 100 100 100s100 -45 100 -100s-45 -100 -100 -100s-100 45 -100 100zM400 550c0 55 45 100 100 100s100 -45 100 -100s-45 -100 -100 -100s-100 45 -100 100zM460 50z" />
    <glyph glyph-name="uni280A" unicode="&#x280a;" 
d="M150 300c0 55 45 100 100 100s100 -45 100 -100s-45 -100 -100 -100s-100 45 -100 100zM400 550c0 55 45 100 100 100s100 -45 100 -100s-45 -100 -100 -100s-100 45 -100 100zM460 50z" />
    <glyph glyph-name="uni280B" unicode="&#x280b;" 
d="M150 550c0 55 45 100 100 100s100 -45 100 -100s-45 -100 -100 -100s-100 45 -100 100zM150 300c0 55 45 100 100 100s100 -45 100 -100s-45 -100 -100 -100s-100 45 -100 100zM400 550c0 55 45 100 100 100s100 -45 100 -100s-45 -100 -100 -100s-100 45 -100 100z
M460 50z" />
    <glyph glyph-name="uni280C" unicode="&#x280c;" 
d="M150 50c0 55 45 100 100 100s100 -45 100 -100s-45 -100 -100 -100s-100 45 -100 100zM400 550c0 55 45 100 100 100s100 -45 100 -100s-45 -100 -100 -100s-100 45 -100 100zM460 50z" />
    <glyph glyph-name="uni280D" unicode="&#x280d;" 
d="M150 550c0 55 45 100 100 100s100 -45 100 -100s-45 -100 -100 -100s-100 45 -100 100zM150 50c0 55 45 100 100 100s100 -45 100 -100s-45 -100 -100 -100s-100 45 -100 100zM400 550c0 55 45 100 100 100s100 -45 100 -100s-45 -100 -100 -100s-100 45 -100 100z
M460 50z" />
    <glyph glyph-name="uni280E" unicode="&#x280e;" 
d="M150 300c0 55 45 100 100 100s100 -45 100 -100s-45 -100 -100 -100s-100 45 -100 100zM150 50c0 55 45 100 100 100s100 -45 100 -100s-45 -100 -100 -100s-100 45 -100 100zM400 550c0 55 45 100 100 100s100 -45 100 -100s-45 -100 -100 -100s-100 45 -100 100z
M460 50z" />
    <glyph glyph-name="uni280F" unicode="&#x280f;" 
d="M150 550c0 55 45 100 100 100s100 -45 100 -100s-45 -100 -100 -100s-100 45 -100 100zM150 300c0 55 45 100 100 100s100 -45 100 -100s-45 -100 -100 -100s-100 45 -100 100zM150 50c0 55 45 100 100 100s100 -45 100 -100s-45 -100 -100 -100s-100 45 -100 100z
M400 550c0 55 45 100 100 100s100 -45 100 -100s-45 -100 -100 -100s-100 45 -100 100zM460 50z" />
    <glyph glyph-name="uni2810" unicode="&#x2810;" 
d="M400 300c0 55 45 100 100 100s100 -45 100 -100s-45 -100 -100 -100s-100 45 -100 100zM460 50z" />
    <glyph glyph-name="uni2811" unicode="&#x2811;" 
d="M150 550c0 55 45 100 100 100s100 -45 100 -100s-45 -100 -100 -100s-100 45 -100 100zM400 300c0 55 45 100 100 100s100 -45 100 -100s-45 -100 -100 -100s-100 45 -100 100zM460 50z" />
    <glyph glyph-name="uni2812" unicode="&#x2812;" 
d="M150 300c0 55 45 100 100 100s100 -45 100 -100s-45 -100 -100 -100s-100 45 -100 100zM400 300c0 55 45 100 100 100s100 -45 100 -100s-45 -100 -100 -100s-100 45 -100 100zM460 50z" />
    <glyph glyph-name="uni2813" unicode="&#x2813;" 
d="M150 550c0 55 45 100 100 100s100 -45 100 -100s-45 -100 -100 -100s-100 45 -100 100zM150 300c0 55 45 100 100 100s100 -45 100 -100s-45 -100 -100 -100s-100 45 -100 100zM400 300c0 55 45 100 100 100s100 -45 100 -100s-45 -100 -100 -100s-100 45 -100 100z
M460 50z" />
    <glyph glyph-name="uni2814" unicode="&#x2814;" 
d="M150 50c0 55 45 100 100 100s100 -45 100 -100s-45 -100 -100 -100s-100 45 -100 100zM400 300c0 55 45 100 100 100s100 -45 100 -100s-45 -100 -100 -100s-100 45 -100 100zM460 50z" />
    <glyph glyph-name="uni2815" unicode="&#x2815;" 
d="M150 550c0 55 45 100 100 100s100 -45 100 -100s-45 -100 -100 -100s-100 45 -100 100zM150 50c0 55 45 100 100 100s100 -45 100 -100s-45 -100 -100 -100s-100 45 -100 100zM400 300c0 55 45 100 100 100s100 -45 100 -100s-45 -100 -100 -100s-100 45 -100 100z
M460 50z" />
    <glyph glyph-name="uni2816" unicode="&#x2816;" 
d="M150 300c0 55 45 100 100 100s100 -45 100 -100s-45 -100 -100 -100s-100 45 -100 100zM150 50c0 55 45 100 100 100s100 -45 100 -100s-45 -100 -100 -100s-100 45 -100 100zM400 300c0 55 45 100 100 100s100 -45 100 -100s-45 -100 -100 -100s-100 45 -100 100z
M460 50z" />
    <glyph glyph-name="uni2817" unicode="&#x2817;" 
d="M150 550c0 55 45 100 100 100s100 -45 100 -100s-45 -100 -100 -100s-100 45 -100 100zM150 300c0 55 45 100 100 100s100 -45 100 -100s-45 -100 -100 -100s-100 45 -100 100zM150 50c0 55 45 100 100 100s100 -45 100 -100s-45 -100 -100 -100s-100 45 -100 100z
M400 300c0 55 45 100 100 100s100 -45 100 -100s-45 -100 -100 -100s-100 45 -100 100zM460 50z" />
    <glyph glyph-name="uni2818" unicode="&#x2818;" 
d="M400 550c0 55 45 100 100 100s100 -45 100 -100s-45 -100 -100 -100s-100 45 -100 100zM400 300c0 55 45 100 100 100s100 -45 100 -100s-45 -100 -100 -100s-100 45 -100 100zM460 50z" />
    <glyph glyph-name="uni2819" unicode="&#x2819;" 
d="M150 550c0 55 45 100 100 100s100 -45 100 -100s-45 -100 -100 -100s-100 45 -100 100zM400 550c0 55 45 100 100 100s100 -45 100 -100s-45 -100 -100 -100s-100 45 -100 100zM400 300c0 55 45 100 100 100s100 -45 100 -100s-45 -100 -100 -100s-100 45 -100 100z
M460 50z" />
    <glyph glyph-name="uni281A" unicode="&#x281a;" 
d="M150 300c0 55 45 100 100 100s100 -45 100 -100s-45 -100 -100 -100s-100 45 -100 100zM400 550c0 55 45 100 100 100s100 -45 100 -100s-45 -100 -100 -100s-100 45 -100 100zM400 300c0 55 45 100 100 100s100 -45 100 -100s-45 -100 -100 -100s-100 45 -100 100z
M460 50z" />
    <glyph glyph-name="uni281B" unicode="&#x281b;" 
d="M150 550c0 55 45 100 100 100s100 -45 100 -100s-45 -100 -100 -100s-100 45 -100 100zM150 300c0 55 45 100 100 100s100 -45 100 -100s-45 -100 -100 -100s-100 45 -100 100zM400 550c0 55 45 100 100 100s100 -45 100 -100s-45 -100 -100 -100s-100 45 -100 100z
M400 300c0 55 45 100 100 100s100 -45 100 -100s-45 -100 -100 -100s-100 45 -100 100zM460 50z" />
    <glyph glyph-name="uni281C" unicode="&#x281c;" 
d="M150 50c0 55 45 100 100 100s100 -45 100 -100s-45 -100 -100 -100s-100 45 -100 100zM400 550c0 55 45 100 100 100s100 -45 100 -100s-45 -100 -100 -100s-100 45 -100 100zM400 300c0 55 45 100 100 100s100 -45 100 -100s-45 -100 -100 -100s-100 45 -100 100z
M460 50z" />
    <glyph glyph-name="uni281D" unicode="&#x281d;" 
d="M150 550c0 55 45 100 100 100s100 -45 100 -100s-45 -100 -100 -100s-100 45 -100 100zM150 50c0 55 45 100 100 100s100 -45 100 -100s-45 -100 -100 -100s-100 45 -100 100zM400 550c0 55 45 100 100 100s100 -45 100 -100s-45 -100 -100 -100s-100 45 -100 100z
M400 300c0 55 45 100 100 100s100 -45 100 -100s-45 -100 -100 -100s-100 45 -100 100zM460 50z" />
    <glyph glyph-name="uni281E" unicode="&#x281e;" 
d="M150 300c0 55 45 100 100 100s100 -45 100 -100s-45 -100 -100 -100s-100 45 -100 100zM150 50c0 55 45 100 100 100s100 -45 100 -100s-45 -100 -100 -100s-100 45 -100 100zM400 550c0 55 45 100 100 100s100 -45 100 -100s-45 -100 -100 -100s-100 45 -100 100z
M400 300c0 55 45 100 100 100s100 -45 100 -100s-45 -100 -100 -100s-100 45 -100 100zM460 50z" />
    <glyph glyph-name="uni281F" unicode="&#x281f;" 
d="M150 550c0 55 45 100 100 100s100 -45 100 -100s-45 -100 -100 -100s-100 45 -100 100zM150 300c0 55 45 100 100 100s100 -45 100 -100s-45 -100 -100 -100s-100 45 -100 100zM150 50c0 55 45 100 100 100s100 -45 100 -100s-45 -100 -100 -100s-100 45 -100 100z
M400 550c0 55 45 100 100 100s100 -45 100 -100s-45 -100 -100 -100s-100 45 -100 100zM400 300c0 55 45 100 100 100s100 -45 100 -100s-45 -100 -100 -100s-100 45 -100 100zM460 50z" />
    <glyph glyph-name="uni2820" unicode="&#x2820;" 
d="M400 50c0 55 45 100 100 100s100 -45 100 -100s-45 -100 -100 -100s-100 45 -100 100z" />
    <glyph glyph-name="uni2821" unicode="&#x2821;" 
d="M150 550c0 55 45 100 100 100s100 -45 100 -100s-45 -100 -100 -100s-100 45 -100 100zM400 50c0 55 45 100 100 100s100 -45 100 -100s-45 -100 -100 -100s-100 45 -100 100z" />
    <glyph glyph-name="uni2822" unicode="&#x2822;" 
d="M150 300c0 55 45 100 100 100s100 -45 100 -100s-45 -100 -100 -100s-100 45 -100 100zM400 50c0 55 45 100 100 100s100 -45 100 -100s-45 -100 -100 -100s-100 45 -100 100z" />
    <glyph glyph-name="uni2823" unicode="&#x2823;" 
d="M150 550c0 55 45 100 100 100s100 -45 100 -100s-45 -100 -100 -100s-100 45 -100 100zM150 300c0 55 45 100 100 100s100 -45 100 -100s-45 -100 -100 -100s-100 45 -100 100zM400 50c0 55 45 100 100 100s100 -45 100 -100s-45 -100 -100 -100s-100 45 -100 100z" />
    <glyph glyph-name="uni2824" unicode="&#x2824;" 
d="M150 50c0 55 45 100 100 100s100 -45 100 -100s-45 -100 -100 -100s-100 45 -100 100zM400 50c0 55 45 100 100 100s100 -45 100 -100s-45 -100 -100 -100s-100 45 -100 100z" />
    <glyph glyph-name="uni2825" unicode="&#x2825;" 
d="M150 550c0 55 45 100 100 100s100 -45 100 -100s-45 -100 -100 -100s-100 45 -100 100zM150 50c0 55 45 100 100 100s100 -45 100 -100s-45 -100 -100 -100s-100 45 -100 100zM400 50c0 55 45 100 100 100s100 -45 100 -100s-45 -100 -100 -100s-100 45 -100 100z" />
    <glyph glyph-name="uni2826" unicode="&#x2826;" 
d="M150 300c0 55 45 100 100 100s100 -45 100 -100s-45 -100 -100 -100s-100 45 -100 100zM150 50c0 55 45 100 100 100s100 -45 100 -100s-45 -100 -100 -100s-100 45 -100 100zM400 50c0 55 45 100 100 100s100 -45 100 -100s-45 -100 -100 -100s-100 45 -100 100z" />
    <glyph glyph-name="uni2827" unicode="&#x2827;" 
d="M150 550c0 55 45 100 100 100s100 -45 100 -100s-45 -100 -100 -100s-100 45 -100 100zM150 300c0 55 45 100 100 100s100 -45 100 -100s-45 -100 -100 -100s-100 45 -100 100zM150 50c0 55 45 100 100 100s100 -45 100 -100s-45 -100 -100 -100s-100 45 -100 100z
M400 50c0 55 45 100 100 100s100 -45 100 -100s-45 -100 -100 -100s-100 45 -100 100z" />
    <glyph glyph-name="uni2828" unicode="&#x2828;" 
d="M400 550c0 55 45 100 100 100s100 -45 100 -100s-45 -100 -100 -100s-100 45 -100 100zM400 50c0 55 45 100 100 100s100 -45 100 -100s-45 -100 -100 -100s-100 45 -100 100z" />
    <glyph glyph-name="uni2829" unicode="&#x2829;" 
d="M150 550c0 55 45 100 100 100s100 -45 100 -100s-45 -100 -100 -100s-100 45 -100 100zM400 550c0 55 45 100 100 100s100 -45 100 -100s-45 -100 -100 -100s-100 45 -100 100zM400 50c0 55 45 100 100 100s100 -45 100 -100s-45 -100 -100 -100s-100 45 -100 100z" />
    <glyph glyph-name="uni282A" unicode="&#x282a;" 
d="M150 300c0 55 45 100 100 100s100 -45 100 -100s-45 -100 -100 -100s-100 45 -100 100zM400 550c0 55 45 100 100 100s100 -45 100 -100s-45 -100 -100 -100s-100 45 -100 100zM400 50c0 55 45 100 100 100s100 -45 100 -100s-45 -100 -100 -100s-100 45 -100 100z" />
    <glyph glyph-name="uni282B" unicode="&#x282b;" 
d="M150 550c0 55 45 100 100 100s100 -45 100 -100s-45 -100 -100 -100s-100 45 -100 100zM150 300c0 55 45 100 100 100s100 -45 100 -100s-45 -100 -100 -100s-100 45 -100 100zM400 550c0 55 45 100 100 100s100 -45 100 -100s-45 -100 -100 -100s-100 45 -100 100z
M400 50c0 55 45 100 100 100s100 -45 100 -100s-45 -100 -100 -100s-100 45 -100 100z" />
    <glyph glyph-name="uni282C" unicode="&#x282c;" 
d="M150 50c0 55 45 100 100 100s100 -45 100 -100s-45 -100 -100 -100s-100 45 -100 100zM400 550c0 55 45 100 100 100s100 -45 100 -100s-45 -100 -100 -100s-100 45 -100 100zM400 50c0 55 45 100 100 100s100 -45 100 -100s-45 -100 -100 -100s-100 45 -100 100z" />
    <glyph glyph-name="uni282D" unicode="&#x282d;" 
d="M150 550c0 55 45 100 100 100s100 -45 100 -100s-45 -100 -100 -100s-100 45 -100 100zM150 50c0 55 45 100 100 100s100 -45 100 -100s-45 -100 -100 -100s-100 45 -100 100zM400 550c0 55 45 100 100 100s100 -45 100 -100s-45 -100 -100 -100s-100 45 -100 100z
M400 50c0 55 45 100 100 100s100 -45 100 -100s-45 -100 -100 -100s-100 45 -100 100z" />
    <glyph glyph-name="uni282E" unicode="&#x282e;" 
d="M150 300c0 55 45 100 100 100s100 -45 100 -100s-45 -100 -100 -100s-100 45 -100 100zM150 50c0 55 45 100 100 100s100 -45 100 -100s-45 -100 -100 -100s-100 45 -100 100zM400 550c0 55 45 100 100 100s100 -45 100 -100s-45 -100 -100 -100s-100 45 -100 100z
M400 50c0 55 45 100 100 100s100 -45 100 -100s-45 -100 -100 -100s-100 45 -100 100z" />
    <glyph glyph-name="uni282F" unicode="&#x282f;" 
d="M150 550c0 55 45 100 100 100s100 -45 100 -100s-45 -100 -100 -100s-100 45 -100 100zM150 300c0 55 45 100 100 100s100 -45 100 -100s-45 -100 -100 -100s-100 45 -100 100zM150 50c0 55 45 100 100 100s100 -45 100 -100s-45 -100 -100 -100s-100 45 -100 100z
M400 550c0 55 45 100 100 100s100 -45 100 -100s-45 -100 -100 -100s-100 45 -100 100zM400 50c0 55 45 100 100 100s100 -45 100 -100s-45 -100 -100 -100s-100 45 -100 100z" />
    <glyph glyph-name="uni2830" unicode="&#x2830;" 
d="M400 300c0 55 45 100 100 100s100 -45 100 -100s-45 -100 -100 -100s-100 45 -100 100zM400 50c0 55 45 100 100 100s100 -45 100 -100s-45 -100 -100 -100s-100 45 -100 100z" />
    <glyph glyph-name="uni2831" unicode="&#x2831;" 
d="M150 550c0 55 45 100 100 100s100 -45 100 -100s-45 -100 -100 -100s-100 45 -100 100zM400 300c0 55 45 100 100 100s100 -45 100 -100s-45 -100 -100 -100s-100 45 -100 100zM400 50c0 55 45 100 100 100s100 -45 100 -100s-45 -100 -100 -100s-100 45 -100 100z" />
    <glyph glyph-name="uni2832" unicode="&#x2832;" 
d="M150 300c0 55 45 100 100 100s100 -45 100 -100s-45 -100 -100 -100s-100 45 -100 100zM400 300c0 55 45 100 100 100s100 -45 100 -100s-45 -100 -100 -100s-100 45 -100 100zM400 50c0 55 45 100 100 100s100 -45 100 -100s-45 -100 -100 -100s-100 45 -100 100z" />
    <glyph glyph-name="uni2833" unicode="&#x2833;" 
d="M150 550c0 55 45 100 100 100s100 -45 100 -100s-45 -100 -100 -100s-100 45 -100 100zM150 300c0 55 45 100 100 100s100 -45 100 -100s-45 -100 -100 -100s-100 45 -100 100zM400 300c0 55 45 100 100 100s100 -45 100 -100s-45 -100 -100 -100s-100 45 -100 100z
M400 50c0 55 45 100 100 100s100 -45 100 -100s-45 -100 -100 -100s-100 45 -100 100z" />
    <glyph glyph-name="uni2834" unicode="&#x2834;" 
d="M150 50c0 55 45 100 100 100s100 -45 100 -100s-45 -100 -100 -100s-100 45 -100 100zM400 300c0 55 45 100 100 100s100 -45 100 -100s-45 -100 -100 -100s-100 45 -100 100zM400 50c0 55 45 100 100 100s100 -45 100 -100s-45 -100 -100 -100s-100 45 -100 100z" />
    <glyph glyph-name="uni2835" unicode="&#x2835;" 
d="M150 550c0 55 45 100 100 100s100 -45 100 -100s-45 -100 -100 -100s-100 45 -100 100zM150 50c0 55 45 100 100 100s100 -45 100 -100s-45 -100 -100 -100s-100 45 -100 100zM400 300c0 55 45 100 100 100s100 -45 100 -100s-45 -100 -100 -100s-100 45 -100 100z
M400 50c0 55 45 100 100 100s100 -45 100 -100s-45 -100 -100 -100s-100 45 -100 100z" />
    <glyph glyph-name="uni2836" unicode="&#x2836;" 
d="M150 300c0 55 45 100 100 100s100 -45 100 -100s-45 -100 -100 -100s-100 45 -100 100zM150 50c0 55 45 100 100 100s100 -45 100 -100s-45 -100 -100 -100s-100 45 -100 100zM400 300c0 55 45 100 100 100s100 -45 100 -100s-45 -100 -100 -100s-100 45 -100 100z
M400 50c0 55 45 100 100 100s100 -45 100 -100s-45 -100 -100 -100s-100 45 -100 100z" />
    <glyph glyph-name="uni2837" unicode="&#x2837;" 
d="M150 550c0 55 45 100 100 100s100 -45 100 -100s-45 -100 -100 -100s-100 45 -100 100zM150 300c0 55 45 100 100 100s100 -45 100 -100s-45 -100 -100 -100s-100 45 -100 100zM150 50c0 55 45 100 100 100s100 -45 100 -100s-45 -100 -100 -100s-100 45 -100 100z
M400 300c0 55 45 100 100 100s100 -45 100 -100s-45 -100 -100 -100s-100 45 -100 100zM400 50c0 55 45 100 100 100s100 -45 100 -100s-45 -100 -100 -100s-100 45 -100 100z" />
    <glyph glyph-name="uni2838" unicode="&#x2838;" 
d="M400 550c0 55 45 100 100 100s100 -45 100 -100s-45 -100 -100 -100s-100 45 -100 100zM400 300c0 55 45 100 100 100s100 -45 100 -100s-45 -100 -100 -100s-100 45 -100 100zM400 50c0 55 45 100 100 100s100 -45 100 -100s-45 -100 -100 -100s-100 45 -100 100z" />
    <glyph glyph-name="uni2839" unicode="&#x2839;" 
d="M150 550c0 55 45 100 100 100s100 -45 100 -100s-45 -100 -100 -100s-100 45 -100 100zM400 550c0 55 45 100 100 100s100 -45 100 -100s-45 -100 -100 -100s-100 45 -100 100zM400 300c0 55 45 100 100 100s100 -45 100 -100s-45 -100 -100 -100s-100 45 -100 100z
M400 50c0 55 45 100 100 100s100 -45 100 -100s-45 -100 -100 -100s-100 45 -100 100z" />
    <glyph glyph-name="uni283A" unicode="&#x283a;" 
d="M150 300c0 55 45 100 100 100s100 -45 100 -100s-45 -100 -100 -100s-100 45 -100 100zM400 550c0 55 45 100 100 100s100 -45 100 -100s-45 -100 -100 -100s-100 45 -100 100zM400 300c0 55 45 100 100 100s100 -45 100 -100s-45 -100 -100 -100s-100 45 -100 100z
M400 50c0 55 45 100 100 100s100 -45 100 -100s-45 -100 -100 -100s-100 45 -100 100z" />
    <glyph glyph-name="uni283B" unicode="&#x283b;" 
d="M150 550c0 55 45 100 100 100s100 -45 100 -100s-45 -100 -100 -100s-100 45 -100 100zM150 300c0 55 45 100 100 100s100 -45 100 -100s-45 -100 -100 -100s-100 45 -100 100zM400 550c0 55 45 100 100 100s100 -45 100 -100s-45 -100 -100 -100s-100 45 -100 100z
M400 300c0 55 45 100 100 100s100 -45 100 -100s-45 -100 -100 -100s-100 45 -100 100zM400 50c0 55 45 100 100 100s100 -45 100 -100s-45 -100 -100 -100s-100 45 -100 100z" />
    <glyph glyph-name="uni283C" unicode="&#x283c;" 
d="M150 50c0 55 45 100 100 100s100 -45 100 -100s-45 -100 -100 -100s-100 45 -100 100zM400 550c0 55 45 100 100 100s100 -45 100 -100s-45 -100 -100 -100s-100 45 -100 100zM400 300c0 55 45 100 100 100s100 -45 100 -100s-45 -100 -100 -100s-100 45 -100 100z
M400 50c0 55 45 100 100 100s100 -45 100 -100s-45 -100 -100 -100s-100 45 -100 100z" />
    <glyph glyph-name="uni283D" unicode="&#x283d;" 
d="M150 550c0 55 45 100 100 100s100 -45 100 -100s-45 -100 -100 -100s-100 45 -100 100zM150 50c0 55 45 100 100 100s100 -45 100 -100s-45 -100 -100 -100s-100 45 -100 100zM400 550c0 55 45 100 100 100s100 -45 100 -100s-45 -100 -100 -100s-100 45 -100 100z
M400 300c0 55 45 100 100 100s100 -45 100 -100s-45 -100 -100 -100s-100 45 -100 100zM400 50c0 55 45 100 100 100s100 -45 100 -100s-45 -100 -100 -100s-100 45 -100 100z" />
    <glyph glyph-name="uni283E" unicode="&#x283e;" 
d="M150 300c0 55 45 100 100 100s100 -45 100 -100s-45 -100 -100 -100s-100 45 -100 100zM150 50c0 55 45 100 100 100s100 -45 100 -100s-45 -100 -100 -100s-100 45 -100 100zM400 550c0 55 45 100 100 100s100 -45 100 -100s-45 -100 -100 -100s-100 45 -100 100z
M400 300c0 55 45 100 100 100s100 -45 100 -100s-45 -100 -100 -100s-100 45 -100 100zM400 50c0 55 45 100 100 100s100 -45 100 -100s-45 -100 -100 -100s-100 45 -100 100z" />
    <glyph glyph-name="uni283F" unicode="&#x283f;" 
d="M150 550c0 55 45 100 100 100s100 -45 100 -100s-45 -100 -100 -100s-100 45 -100 100zM150 300c0 55 45 100 100 100s100 -45 100 -100s-45 -100 -100 -100s-100 45 -100 100zM150 50c0 55 45 100 100 100s100 -45 100 -100s-45 -100 -100 -100s-100 45 -100 100z
M400 550c0 55 45 100 100 100s100 -45 100 -100s-45 -100 -100 -100s-100 45 -100 100zM400 300c0 55 45 100 100 100s100 -45 100 -100s-45 -100 -100 -100s-100 45 -100 100zM400 50c0 55 45 100 100 100s100 -45 100 -100s-45 -100 -100 -100s-100 45 -100 100z" />
    <glyph glyph-name="uni2840" unicode="&#x2840;" 
d="M170 0c0 44 36 80 80 80s80 -36 80 -80s-36 -80 -80 -80s-80 36 -80 80zM468 0z" />
    <glyph glyph-name="uni2841" unicode="&#x2841;" 
d="M170 600c0 44 36 80 80 80s80 -36 80 -80s-36 -80 -80 -80s-80 36 -80 80zM170 0c0 44 36 80 80 80s80 -36 80 -80s-36 -80 -80 -80s-80 36 -80 80zM468 0z" />
    <glyph glyph-name="uni2842" unicode="&#x2842;" 
d="M170 400c0 44 36 80 80 80s80 -36 80 -80s-36 -80 -80 -80s-80 36 -80 80zM170 0c0 44 36 80 80 80s80 -36 80 -80s-36 -80 -80 -80s-80 36 -80 80zM468 0z" />
    <glyph glyph-name="uni2843" unicode="&#x2843;" 
d="M170 600c0 44 36 80 80 80s80 -36 80 -80s-36 -80 -80 -80s-80 36 -80 80zM170 400c0 44 36 80 80 80s80 -36 80 -80s-36 -80 -80 -80s-80 36 -80 80zM170 0c0 44 36 80 80 80s80 -36 80 -80s-36 -80 -80 -80s-80 36 -80 80zM468 0z" />
    <glyph glyph-name="uni2844" unicode="&#x2844;" 
d="M170 200c0 44 36 80 80 80s80 -36 80 -80s-36 -80 -80 -80s-80 36 -80 80zM170 0c0 44 36 80 80 80s80 -36 80 -80s-36 -80 -80 -80s-80 36 -80 80zM468 0z" />
    <glyph glyph-name="uni2845" unicode="&#x2845;" 
d="M170 600c0 44 36 80 80 80s80 -36 80 -80s-36 -80 -80 -80s-80 36 -80 80zM170 200c0 44 36 80 80 80s80 -36 80 -80s-36 -80 -80 -80s-80 36 -80 80zM170 0c0 44 36 80 80 80s80 -36 80 -80s-36 -80 -80 -80s-80 36 -80 80zM468 0z" />
    <glyph glyph-name="uni2846" unicode="&#x2846;" 
d="M170 400c0 44 36 80 80 80s80 -36 80 -80s-36 -80 -80 -80s-80 36 -80 80zM170 200c0 44 36 80 80 80s80 -36 80 -80s-36 -80 -80 -80s-80 36 -80 80zM170 0c0 44 36 80 80 80s80 -36 80 -80s-36 -80 -80 -80s-80 36 -80 80zM468 0z" />
    <glyph glyph-name="uni2847" unicode="&#x2847;" 
d="M170 600c0 44 36 80 80 80s80 -36 80 -80s-36 -80 -80 -80s-80 36 -80 80zM170 400c0 44 36 80 80 80s80 -36 80 -80s-36 -80 -80 -80s-80 36 -80 80zM170 200c0 44 36 80 80 80s80 -36 80 -80s-36 -80 -80 -80s-80 36 -80 80zM170 0c0 44 36 80 80 80s80 -36 80 -80
s-36 -80 -80 -80s-80 36 -80 80zM468 0z" />
    <glyph glyph-name="uni2848" unicode="&#x2848;" 
d="M420 600c0 44 36 80 80 80s80 -36 80 -80s-36 -80 -80 -80s-80 36 -80 80zM170 0c0 44 36 80 80 80s80 -36 80 -80s-36 -80 -80 -80s-80 36 -80 80zM468 0z" />
    <glyph glyph-name="uni2849" unicode="&#x2849;" 
d="M170 600c0 44 36 80 80 80s80 -36 80 -80s-36 -80 -80 -80s-80 36 -80 80zM420 600c0 44 36 80 80 80s80 -36 80 -80s-36 -80 -80 -80s-80 36 -80 80zM170 0c0 44 36 80 80 80s80 -36 80 -80s-36 -80 -80 -80s-80 36 -80 80zM468 0z" />
    <glyph glyph-name="uni284A" unicode="&#x284a;" 
d="M170 400c0 44 36 80 80 80s80 -36 80 -80s-36 -80 -80 -80s-80 36 -80 80zM420 600c0 44 36 80 80 80s80 -36 80 -80s-36 -80 -80 -80s-80 36 -80 80zM170 0c0 44 36 80 80 80s80 -36 80 -80s-36 -80 -80 -80s-80 36 -80 80zM468 0z" />
    <glyph glyph-name="uni284B" unicode="&#x284b;" 
d="M170 600c0 44 36 80 80 80s80 -36 80 -80s-36 -80 -80 -80s-80 36 -80 80zM170 400c0 44 36 80 80 80s80 -36 80 -80s-36 -80 -80 -80s-80 36 -80 80zM420 600c0 44 36 80 80 80s80 -36 80 -80s-36 -80 -80 -80s-80 36 -80 80zM170 0c0 44 36 80 80 80s80 -36 80 -80
s-36 -80 -80 -80s-80 36 -80 80zM468 0z" />
    <glyph glyph-name="uni284C" unicode="&#x284c;" 
d="M170 200c0 44 36 80 80 80s80 -36 80 -80s-36 -80 -80 -80s-80 36 -80 80zM420 600c0 44 36 80 80 80s80 -36 80 -80s-36 -80 -80 -80s-80 36 -80 80zM170 0c0 44 36 80 80 80s80 -36 80 -80s-36 -80 -80 -80s-80 36 -80 80zM468 0z" />
    <glyph glyph-name="uni284D" unicode="&#x284d;" 
d="M170 600c0 44 36 80 80 80s80 -36 80 -80s-36 -80 -80 -80s-80 36 -80 80zM170 200c0 44 36 80 80 80s80 -36 80 -80s-36 -80 -80 -80s-80 36 -80 80zM420 600c0 44 36 80 80 80s80 -36 80 -80s-36 -80 -80 -80s-80 36 -80 80zM170 0c0 44 36 80 80 80s80 -36 80 -80
s-36 -80 -80 -80s-80 36 -80 80zM468 0z" />
    <glyph glyph-name="uni284E" unicode="&#x284e;" 
d="M170 400c0 44 36 80 80 80s80 -36 80 -80s-36 -80 -80 -80s-80 36 -80 80zM170 200c0 44 36 80 80 80s80 -36 80 -80s-36 -80 -80 -80s-80 36 -80 80zM420 600c0 44 36 80 80 80s80 -36 80 -80s-36 -80 -80 -80s-80 36 -80 80zM170 0c0 44 36 80 80 80s80 -36 80 -80
s-36 -80 -80 -80s-80 36 -80 80zM468 0z" />
    <glyph glyph-name="uni284F" unicode="&#x284f;" 
d="M170 600c0 44 36 80 80 80s80 -36 80 -80s-36 -80 -80 -80s-80 36 -80 80zM170 400c0 44 36 80 80 80s80 -36 80 -80s-36 -80 -80 -80s-80 36 -80 80zM170 200c0 44 36 80 80 80s80 -36 80 -80s-36 -80 -80 -80s-80 36 -80 80zM420 600c0 44 36 80 80 80s80 -36 80 -80
s-36 -80 -80 -80s-80 36 -80 80zM170 0c0 44 36 80 80 80s80 -36 80 -80s-36 -80 -80 -80s-80 36 -80 80zM468 0z" />
    <glyph glyph-name="uni2850" unicode="&#x2850;" 
d="M420 400c0 44 36 80 80 80s80 -36 80 -80s-36 -80 -80 -80s-80 36 -80 80zM170 0c0 44 36 80 80 80s80 -36 80 -80s-36 -80 -80 -80s-80 36 -80 80zM468 0z" />
    <glyph glyph-name="uni2851" unicode="&#x2851;" 
d="M170 600c0 44 36 80 80 80s80 -36 80 -80s-36 -80 -80 -80s-80 36 -80 80zM420 400c0 44 36 80 80 80s80 -36 80 -80s-36 -80 -80 -80s-80 36 -80 80zM170 0c0 44 36 80 80 80s80 -36 80 -80s-36 -80 -80 -80s-80 36 -80 80zM468 0z" />
    <glyph glyph-name="uni2852" unicode="&#x2852;" 
d="M170 400c0 44 36 80 80 80s80 -36 80 -80s-36 -80 -80 -80s-80 36 -80 80zM420 400c0 44 36 80 80 80s80 -36 80 -80s-36 -80 -80 -80s-80 36 -80 80zM170 0c0 44 36 80 80 80s80 -36 80 -80s-36 -80 -80 -80s-80 36 -80 80zM468 0z" />
    <glyph glyph-name="uni2853" unicode="&#x2853;" 
d="M170 600c0 44 36 80 80 80s80 -36 80 -80s-36 -80 -80 -80s-80 36 -80 80zM170 400c0 44 36 80 80 80s80 -36 80 -80s-36 -80 -80 -80s-80 36 -80 80zM420 400c0 44 36 80 80 80s80 -36 80 -80s-36 -80 -80 -80s-80 36 -80 80zM170 0c0 44 36 80 80 80s80 -36 80 -80
s-36 -80 -80 -80s-80 36 -80 80zM468 0z" />
    <glyph glyph-name="uni2854" unicode="&#x2854;" 
d="M170 200c0 44 36 80 80 80s80 -36 80 -80s-36 -80 -80 -80s-80 36 -80 80zM420 400c0 44 36 80 80 80s80 -36 80 -80s-36 -80 -80 -80s-80 36 -80 80zM170 0c0 44 36 80 80 80s80 -36 80 -80s-36 -80 -80 -80s-80 36 -80 80zM468 0z" />
    <glyph glyph-name="uni2855" unicode="&#x2855;" 
d="M170 600c0 44 36 80 80 80s80 -36 80 -80s-36 -80 -80 -80s-80 36 -80 80zM170 200c0 44 36 80 80 80s80 -36 80 -80s-36 -80 -80 -80s-80 36 -80 80zM420 400c0 44 36 80 80 80s80 -36 80 -80s-36 -80 -80 -80s-80 36 -80 80zM170 0c0 44 36 80 80 80s80 -36 80 -80
s-36 -80 -80 -80s-80 36 -80 80zM468 0z" />
    <glyph glyph-name="uni2856" unicode="&#x2856;" 
d="M170 400c0 44 36 80 80 80s80 -36 80 -80s-36 -80 -80 -80s-80 36 -80 80zM170 200c0 44 36 80 80 80s80 -36 80 -80s-36 -80 -80 -80s-80 36 -80 80zM420 400c0 44 36 80 80 80s80 -36 80 -80s-36 -80 -80 -80s-80 36 -80 80zM170 0c0 44 36 80 80 80s80 -36 80 -80
s-36 -80 -80 -80s-80 36 -80 80zM468 0z" />
    <glyph glyph-name="uni2857" unicode="&#x2857;" 
d="M170 600c0 44 36 80 80 80s80 -36 80 -80s-36 -80 -80 -80s-80 36 -80 80zM170 400c0 44 36 80 80 80s80 -36 80 -80s-36 -80 -80 -80s-80 36 -80 80zM170 200c0 44 36 80 80 80s80 -36 80 -80s-36 -80 -80 -80s-80 36 -80 80zM420 400c0 44 36 80 80 80s80 -36 80 -80
s-36 -80 -80 -80s-80 36 -80 80zM170 0c0 44 36 80 80 80s80 -36 80 -80s-36 -80 -80 -80s-80 36 -80 80zM468 0z" />
    <glyph glyph-name="uni2858" unicode="&#x2858;" 
d="M420 600c0 44 36 80 80 80s80 -36 80 -80s-36 -80 -80 -80s-80 36 -80 80zM420 400c0 44 36 80 80 80s80 -36 80 -80s-36 -80 -80 -80s-80 36 -80 80zM170 0c0 44 36 80 80 80s80 -36 80 -80s-36 -80 -80 -80s-80 36 -80 80zM468 0z" />
    <glyph glyph-name="uni2859" unicode="&#x2859;" 
d="M170 600c0 44 36 80 80 80s80 -36 80 -80s-36 -80 -80 -80s-80 36 -80 80zM420 600c0 44 36 80 80 80s80 -36 80 -80s-36 -80 -80 -80s-80 36 -80 80zM420 400c0 44 36 80 80 80s80 -36 80 -80s-36 -80 -80 -80s-80 36 -80 80zM170 0c0 44 36 80 80 80s80 -36 80 -80
s-36 -80 -80 -80s-80 36 -80 80zM468 0z" />
    <glyph glyph-name="uni285A" unicode="&#x285a;" 
d="M170 400c0 44 36 80 80 80s80 -36 80 -80s-36 -80 -80 -80s-80 36 -80 80zM420 600c0 44 36 80 80 80s80 -36 80 -80s-36 -80 -80 -80s-80 36 -80 80zM420 400c0 44 36 80 80 80s80 -36 80 -80s-36 -80 -80 -80s-80 36 -80 80zM170 0c0 44 36 80 80 80s80 -36 80 -80
s-36 -80 -80 -80s-80 36 -80 80zM468 0z" />
    <glyph glyph-name="uni285B" unicode="&#x285b;" 
d="M170 600c0 44 36 80 80 80s80 -36 80 -80s-36 -80 -80 -80s-80 36 -80 80zM170 400c0 44 36 80 80 80s80 -36 80 -80s-36 -80 -80 -80s-80 36 -80 80zM420 600c0 44 36 80 80 80s80 -36 80 -80s-36 -80 -80 -80s-80 36 -80 80zM420 400c0 44 36 80 80 80s80 -36 80 -80
s-36 -80 -80 -80s-80 36 -80 80zM170 0c0 44 36 80 80 80s80 -36 80 -80s-36 -80 -80 -80s-80 36 -80 80zM468 0z" />
    <glyph glyph-name="uni285C" unicode="&#x285c;" 
d="M170 200c0 44 36 80 80 80s80 -36 80 -80s-36 -80 -80 -80s-80 36 -80 80zM420 600c0 44 36 80 80 80s80 -36 80 -80s-36 -80 -80 -80s-80 36 -80 80zM420 400c0 44 36 80 80 80s80 -36 80 -80s-36 -80 -80 -80s-80 36 -80 80zM170 0c0 44 36 80 80 80s80 -36 80 -80
s-36 -80 -80 -80s-80 36 -80 80zM468 0z" />
    <glyph glyph-name="uni285D" unicode="&#x285d;" 
d="M170 600c0 44 36 80 80 80s80 -36 80 -80s-36 -80 -80 -80s-80 36 -80 80zM170 200c0 44 36 80 80 80s80 -36 80 -80s-36 -80 -80 -80s-80 36 -80 80zM420 600c0 44 36 80 80 80s80 -36 80 -80s-36 -80 -80 -80s-80 36 -80 80zM420 400c0 44 36 80 80 80s80 -36 80 -80
s-36 -80 -80 -80s-80 36 -80 80zM170 0c0 44 36 80 80 80s80 -36 80 -80s-36 -80 -80 -80s-80 36 -80 80zM468 0z" />
    <glyph glyph-name="uni285E" unicode="&#x285e;" 
d="M170 400c0 44 36 80 80 80s80 -36 80 -80s-36 -80 -80 -80s-80 36 -80 80zM170 200c0 44 36 80 80 80s80 -36 80 -80s-36 -80 -80 -80s-80 36 -80 80zM420 600c0 44 36 80 80 80s80 -36 80 -80s-36 -80 -80 -80s-80 36 -80 80zM420 400c0 44 36 80 80 80s80 -36 80 -80
s-36 -80 -80 -80s-80 36 -80 80zM170 0c0 44 36 80 80 80s80 -36 80 -80s-36 -80 -80 -80s-80 36 -80 80zM468 0z" />
    <glyph glyph-name="uni285F" unicode="&#x285f;" 
d="M170 600c0 44 36 80 80 80s80 -36 80 -80s-36 -80 -80 -80s-80 36 -80 80zM170 400c0 44 36 80 80 80s80 -36 80 -80s-36 -80 -80 -80s-80 36 -80 80zM170 200c0 44 36 80 80 80s80 -36 80 -80s-36 -80 -80 -80s-80 36 -80 80zM420 600c0 44 36 80 80 80s80 -36 80 -80
s-36 -80 -80 -80s-80 36 -80 80zM420 400c0 44 36 80 80 80s80 -36 80 -80s-36 -80 -80 -80s-80 36 -80 80zM170 0c0 44 36 80 80 80s80 -36 80 -80s-36 -80 -80 -80s-80 36 -80 80zM468 0z" />
    <glyph glyph-name="uni2860" unicode="&#x2860;" 
d="M420 200c0 44 36 80 80 80s80 -36 80 -80s-36 -80 -80 -80s-80 36 -80 80zM170 0c0 44 36 80 80 80s80 -36 80 -80s-36 -80 -80 -80s-80 36 -80 80zM468 0z" />
    <glyph glyph-name="uni2861" unicode="&#x2861;" 
d="M170 600c0 44 36 80 80 80s80 -36 80 -80s-36 -80 -80 -80s-80 36 -80 80zM420 200c0 44 36 80 80 80s80 -36 80 -80s-36 -80 -80 -80s-80 36 -80 80zM170 0c0 44 36 80 80 80s80 -36 80 -80s-36 -80 -80 -80s-80 36 -80 80zM468 0z" />
    <glyph glyph-name="uni2862" unicode="&#x2862;" 
d="M170 400c0 44 36 80 80 80s80 -36 80 -80s-36 -80 -80 -80s-80 36 -80 80zM420 200c0 44 36 80 80 80s80 -36 80 -80s-36 -80 -80 -80s-80 36 -80 80zM170 0c0 44 36 80 80 80s80 -36 80 -80s-36 -80 -80 -80s-80 36 -80 80zM468 0z" />
    <glyph glyph-name="uni2863" unicode="&#x2863;" 
d="M170 600c0 44 36 80 80 80s80 -36 80 -80s-36 -80 -80 -80s-80 36 -80 80zM170 400c0 44 36 80 80 80s80 -36 80 -80s-36 -80 -80 -80s-80 36 -80 80zM420 200c0 44 36 80 80 80s80 -36 80 -80s-36 -80 -80 -80s-80 36 -80 80zM170 0c0 44 36 80 80 80s80 -36 80 -80
s-36 -80 -80 -80s-80 36 -80 80zM468 0z" />
    <glyph glyph-name="uni2864" unicode="&#x2864;" 
d="M170 200c0 44 36 80 80 80s80 -36 80 -80s-36 -80 -80 -80s-80 36 -80 80zM420 200c0 44 36 80 80 80s80 -36 80 -80s-36 -80 -80 -80s-80 36 -80 80zM170 0c0 44 36 80 80 80s80 -36 80 -80s-36 -80 -80 -80s-80 36 -80 80zM468 0z" />
    <glyph glyph-name="uni2865" unicode="&#x2865;" 
d="M170 600c0 44 36 80 80 80s80 -36 80 -80s-36 -80 -80 -80s-80 36 -80 80zM170 200c0 44 36 80 80 80s80 -36 80 -80s-36 -80 -80 -80s-80 36 -80 80zM420 200c0 44 36 80 80 80s80 -36 80 -80s-36 -80 -80 -80s-80 36 -80 80zM170 0c0 44 36 80 80 80s80 -36 80 -80
s-36 -80 -80 -80s-80 36 -80 80zM468 0z" />
    <glyph glyph-name="uni2866" unicode="&#x2866;" 
d="M170 400c0 44 36 80 80 80s80 -36 80 -80s-36 -80 -80 -80s-80 36 -80 80zM170 200c0 44 36 80 80 80s80 -36 80 -80s-36 -80 -80 -80s-80 36 -80 80zM420 200c0 44 36 80 80 80s80 -36 80 -80s-36 -80 -80 -80s-80 36 -80 80zM170 0c0 44 36 80 80 80s80 -36 80 -80
s-36 -80 -80 -80s-80 36 -80 80zM468 0z" />
    <glyph glyph-name="uni2867" unicode="&#x2867;" 
d="M170 600c0 44 36 80 80 80s80 -36 80 -80s-36 -80 -80 -80s-80 36 -80 80zM170 400c0 44 36 80 80 80s80 -36 80 -80s-36 -80 -80 -80s-80 36 -80 80zM170 200c0 44 36 80 80 80s80 -36 80 -80s-36 -80 -80 -80s-80 36 -80 80zM420 200c0 44 36 80 80 80s80 -36 80 -80
s-36 -80 -80 -80s-80 36 -80 80zM170 0c0 44 36 80 80 80s80 -36 80 -80s-36 -80 -80 -80s-80 36 -80 80zM468 0z" />
    <glyph glyph-name="uni2868" unicode="&#x2868;" 
d="M420 600c0 44 36 80 80 80s80 -36 80 -80s-36 -80 -80 -80s-80 36 -80 80zM420 200c0 44 36 80 80 80s80 -36 80 -80s-36 -80 -80 -80s-80 36 -80 80zM170 0c0 44 36 80 80 80s80 -36 80 -80s-36 -80 -80 -80s-80 36 -80 80zM468 0z" />
    <glyph glyph-name="uni2869" unicode="&#x2869;" 
d="M170 600c0 44 36 80 80 80s80 -36 80 -80s-36 -80 -80 -80s-80 36 -80 80zM420 600c0 44 36 80 80 80s80 -36 80 -80s-36 -80 -80 -80s-80 36 -80 80zM420 200c0 44 36 80 80 80s80 -36 80 -80s-36 -80 -80 -80s-80 36 -80 80zM170 0c0 44 36 80 80 80s80 -36 80 -80
s-36 -80 -80 -80s-80 36 -80 80zM468 0z" />
    <glyph glyph-name="uni286A" unicode="&#x286a;" 
d="M170 400c0 44 36 80 80 80s80 -36 80 -80s-36 -80 -80 -80s-80 36 -80 80zM420 600c0 44 36 80 80 80s80 -36 80 -80s-36 -80 -80 -80s-80 36 -80 80zM420 200c0 44 36 80 80 80s80 -36 80 -80s-36 -80 -80 -80s-80 36 -80 80zM170 0c0 44 36 80 80 80s80 -36 80 -80
s-36 -80 -80 -80s-80 36 -80 80zM468 0z" />
    <glyph glyph-name="uni286B" unicode="&#x286b;" 
d="M170 600c0 44 36 80 80 80s80 -36 80 -80s-36 -80 -80 -80s-80 36 -80 80zM170 400c0 44 36 80 80 80s80 -36 80 -80s-36 -80 -80 -80s-80 36 -80 80zM420 600c0 44 36 80 80 80s80 -36 80 -80s-36 -80 -80 -80s-80 36 -80 80zM420 200c0 44 36 80 80 80s80 -36 80 -80
s-36 -80 -80 -80s-80 36 -80 80zM170 0c0 44 36 80 80 80s80 -36 80 -80s-36 -80 -80 -80s-80 36 -80 80zM468 0z" />
    <glyph glyph-name="uni286C" unicode="&#x286c;" 
d="M170 200c0 44 36 80 80 80s80 -36 80 -80s-36 -80 -80 -80s-80 36 -80 80zM420 600c0 44 36 80 80 80s80 -36 80 -80s-36 -80 -80 -80s-80 36 -80 80zM420 200c0 44 36 80 80 80s80 -36 80 -80s-36 -80 -80 -80s-80 36 -80 80zM170 0c0 44 36 80 80 80s80 -36 80 -80
s-36 -80 -80 -80s-80 36 -80 80zM468 0z" />
    <glyph glyph-name="uni286D" unicode="&#x286d;" 
d="M170 600c0 44 36 80 80 80s80 -36 80 -80s-36 -80 -80 -80s-80 36 -80 80zM170 200c0 44 36 80 80 80s80 -36 80 -80s-36 -80 -80 -80s-80 36 -80 80zM420 600c0 44 36 80 80 80s80 -36 80 -80s-36 -80 -80 -80s-80 36 -80 80zM420 200c0 44 36 80 80 80s80 -36 80 -80
s-36 -80 -80 -80s-80 36 -80 80zM170 0c0 44 36 80 80 80s80 -36 80 -80s-36 -80 -80 -80s-80 36 -80 80zM468 0z" />
    <glyph glyph-name="uni286E" unicode="&#x286e;" 
d="M170 400c0 44 36 80 80 80s80 -36 80 -80s-36 -80 -80 -80s-80 36 -80 80zM170 200c0 44 36 80 80 80s80 -36 80 -80s-36 -80 -80 -80s-80 36 -80 80zM420 600c0 44 36 80 80 80s80 -36 80 -80s-36 -80 -80 -80s-80 36 -80 80zM420 200c0 44 36 80 80 80s80 -36 80 -80
s-36 -80 -80 -80s-80 36 -80 80zM170 0c0 44 36 80 80 80s80 -36 80 -80s-36 -80 -80 -80s-80 36 -80 80zM468 0z" />
    <glyph glyph-name="uni286F" unicode="&#x286f;" 
d="M170 600c0 44 36 80 80 80s80 -36 80 -80s-36 -80 -80 -80s-80 36 -80 80zM170 400c0 44 36 80 80 80s80 -36 80 -80s-36 -80 -80 -80s-80 36 -80 80zM170 200c0 44 36 80 80 80s80 -36 80 -80s-36 -80 -80 -80s-80 36 -80 80zM420 600c0 44 36 80 80 80s80 -36 80 -80
s-36 -80 -80 -80s-80 36 -80 80zM420 200c0 44 36 80 80 80s80 -36 80 -80s-36 -80 -80 -80s-80 36 -80 80zM170 0c0 44 36 80 80 80s80 -36 80 -80s-36 -80 -80 -80s-80 36 -80 80zM468 0z" />
    <glyph glyph-name="uni2870" unicode="&#x2870;" 
d="M420 400c0 44 36 80 80 80s80 -36 80 -80s-36 -80 -80 -80s-80 36 -80 80zM420 200c0 44 36 80 80 80s80 -36 80 -80s-36 -80 -80 -80s-80 36 -80 80zM170 0c0 44 36 80 80 80s80 -36 80 -80s-36 -80 -80 -80s-80 36 -80 80zM468 0z" />
    <glyph glyph-name="uni2871" unicode="&#x2871;" 
d="M170 600c0 44 36 80 80 80s80 -36 80 -80s-36 -80 -80 -80s-80 36 -80 80zM420 400c0 44 36 80 80 80s80 -36 80 -80s-36 -80 -80 -80s-80 36 -80 80zM420 200c0 44 36 80 80 80s80 -36 80 -80s-36 -80 -80 -80s-80 36 -80 80zM170 0c0 44 36 80 80 80s80 -36 80 -80
s-36 -80 -80 -80s-80 36 -80 80zM468 0z" />
    <glyph glyph-name="uni2872" unicode="&#x2872;" 
d="M170 400c0 44 36 80 80 80s80 -36 80 -80s-36 -80 -80 -80s-80 36 -80 80zM420 400c0 44 36 80 80 80s80 -36 80 -80s-36 -80 -80 -80s-80 36 -80 80zM420 200c0 44 36 80 80 80s80 -36 80 -80s-36 -80 -80 -80s-80 36 -80 80zM170 0c0 44 36 80 80 80s80 -36 80 -80
s-36 -80 -80 -80s-80 36 -80 80zM468 0z" />
    <glyph glyph-name="uni2873" unicode="&#x2873;" 
d="M170 600c0 44 36 80 80 80s80 -36 80 -80s-36 -80 -80 -80s-80 36 -80 80zM170 400c0 44 36 80 80 80s80 -36 80 -80s-36 -80 -80 -80s-80 36 -80 80zM420 400c0 44 36 80 80 80s80 -36 80 -80s-36 -80 -80 -80s-80 36 -80 80zM420 200c0 44 36 80 80 80s80 -36 80 -80
s-36 -80 -80 -80s-80 36 -80 80zM170 0c0 44 36 80 80 80s80 -36 80 -80s-36 -80 -80 -80s-80 36 -80 80zM468 0z" />
    <glyph glyph-name="uni2874" unicode="&#x2874;" 
d="M170 200c0 44 36 80 80 80s80 -36 80 -80s-36 -80 -80 -80s-80 36 -80 80zM420 400c0 44 36 80 80 80s80 -36 80 -80s-36 -80 -80 -80s-80 36 -80 80zM420 200c0 44 36 80 80 80s80 -36 80 -80s-36 -80 -80 -80s-80 36 -80 80zM170 0c0 44 36 80 80 80s80 -36 80 -80
s-36 -80 -80 -80s-80 36 -80 80zM468 0z" />
    <glyph glyph-name="uni2875" unicode="&#x2875;" 
d="M170 600c0 44 36 80 80 80s80 -36 80 -80s-36 -80 -80 -80s-80 36 -80 80zM170 200c0 44 36 80 80 80s80 -36 80 -80s-36 -80 -80 -80s-80 36 -80 80zM420 400c0 44 36 80 80 80s80 -36 80 -80s-36 -80 -80 -80s-80 36 -80 80zM420 200c0 44 36 80 80 80s80 -36 80 -80
s-36 -80 -80 -80s-80 36 -80 80zM170 0c0 44 36 80 80 80s80 -36 80 -80s-36 -80 -80 -80s-80 36 -80 80zM468 0z" />
    <glyph glyph-name="uni2876" unicode="&#x2876;" 
d="M170 400c0 44 36 80 80 80s80 -36 80 -80s-36 -80 -80 -80s-80 36 -80 80zM170 200c0 44 36 80 80 80s80 -36 80 -80s-36 -80 -80 -80s-80 36 -80 80zM420 400c0 44 36 80 80 80s80 -36 80 -80s-36 -80 -80 -80s-80 36 -80 80zM420 200c0 44 36 80 80 80s80 -36 80 -80
s-36 -80 -80 -80s-80 36 -80 80zM170 0c0 44 36 80 80 80s80 -36 80 -80s-36 -80 -80 -80s-80 36 -80 80zM468 0z" />
    <glyph glyph-name="uni2877" unicode="&#x2877;" 
d="M170 600c0 44 36 80 80 80s80 -36 80 -80s-36 -80 -80 -80s-80 36 -80 80zM170 400c0 44 36 80 80 80s80 -36 80 -80s-36 -80 -80 -80s-80 36 -80 80zM170 200c0 44 36 80 80 80s80 -36 80 -80s-36 -80 -80 -80s-80 36 -80 80zM420 400c0 44 36 80 80 80s80 -36 80 -80
s-36 -80 -80 -80s-80 36 -80 80zM420 200c0 44 36 80 80 80s80 -36 80 -80s-36 -80 -80 -80s-80 36 -80 80zM170 0c0 44 36 80 80 80s80 -36 80 -80s-36 -80 -80 -80s-80 36 -80 80zM468 0z" />
    <glyph glyph-name="uni2878" unicode="&#x2878;" 
d="M420 600c0 44 36 80 80 80s80 -36 80 -80s-36 -80 -80 -80s-80 36 -80 80zM420 400c0 44 36 80 80 80s80 -36 80 -80s-36 -80 -80 -80s-80 36 -80 80zM420 200c0 44 36 80 80 80s80 -36 80 -80s-36 -80 -80 -80s-80 36 -80 80zM170 0c0 44 36 80 80 80s80 -36 80 -80
s-36 -80 -80 -80s-80 36 -80 80zM468 0z" />
    <glyph glyph-name="uni2879" unicode="&#x2879;" 
d="M170 600c0 44 36 80 80 80s80 -36 80 -80s-36 -80 -80 -80s-80 36 -80 80zM420 600c0 44 36 80 80 80s80 -36 80 -80s-36 -80 -80 -80s-80 36 -80 80zM420 400c0 44 36 80 80 80s80 -36 80 -80s-36 -80 -80 -80s-80 36 -80 80zM420 200c0 44 36 80 80 80s80 -36 80 -80
s-36 -80 -80 -80s-80 36 -80 80zM170 0c0 44 36 80 80 80s80 -36 80 -80s-36 -80 -80 -80s-80 36 -80 80zM468 0z" />
    <glyph glyph-name="uni287A" unicode="&#x287a;" 
d="M170 400c0 44 36 80 80 80s80 -36 80 -80s-36 -80 -80 -80s-80 36 -80 80zM420 600c0 44 36 80 80 80s80 -36 80 -80s-36 -80 -80 -80s-80 36 -80 80zM420 400c0 44 36 80 80 80s80 -36 80 -80s-36 -80 -80 -80s-80 36 -80 80zM420 200c0 44 36 80 80 80s80 -36 80 -80
s-36 -80 -80 -80s-80 36 -80 80zM170 0c0 44 36 80 80 80s80 -36 80 -80s-36 -80 -80 -80s-80 36 -80 80zM468 0z" />
    <glyph glyph-name="uni287B" unicode="&#x287b;" 
d="M170 600c0 44 36 80 80 80s80 -36 80 -80s-36 -80 -80 -80s-80 36 -80 80zM170 400c0 44 36 80 80 80s80 -36 80 -80s-36 -80 -80 -80s-80 36 -80 80zM420 600c0 44 36 80 80 80s80 -36 80 -80s-36 -80 -80 -80s-80 36 -80 80zM420 400c0 44 36 80 80 80s80 -36 80 -80
s-36 -80 -80 -80s-80 36 -80 80zM420 200c0 44 36 80 80 80s80 -36 80 -80s-36 -80 -80 -80s-80 36 -80 80zM170 0c0 44 36 80 80 80s80 -36 80 -80s-36 -80 -80 -80s-80 36 -80 80zM468 0z" />
    <glyph glyph-name="uni287C" unicode="&#x287c;" 
d="M170 200c0 44 36 80 80 80s80 -36 80 -80s-36 -80 -80 -80s-80 36 -80 80zM420 600c0 44 36 80 80 80s80 -36 80 -80s-36 -80 -80 -80s-80 36 -80 80zM420 400c0 44 36 80 80 80s80 -36 80 -80s-36 -80 -80 -80s-80 36 -80 80zM420 200c0 44 36 80 80 80s80 -36 80 -80
s-36 -80 -80 -80s-80 36 -80 80zM170 0c0 44 36 80 80 80s80 -36 80 -80s-36 -80 -80 -80s-80 36 -80 80zM468 0z" />
    <glyph glyph-name="uni287D" unicode="&#x287d;" 
d="M170 600c0 44 36 80 80 80s80 -36 80 -80s-36 -80 -80 -80s-80 36 -80 80zM170 200c0 44 36 80 80 80s80 -36 80 -80s-36 -80 -80 -80s-80 36 -80 80zM420 600c0 44 36 80 80 80s80 -36 80 -80s-36 -80 -80 -80s-80 36 -80 80zM420 400c0 44 36 80 80 80s80 -36 80 -80
s-36 -80 -80 -80s-80 36 -80 80zM420 200c0 44 36 80 80 80s80 -36 80 -80s-36 -80 -80 -80s-80 36 -80 80zM170 0c0 44 36 80 80 80s80 -36 80 -80s-36 -80 -80 -80s-80 36 -80 80zM468 0z" />
    <glyph glyph-name="uni287E" unicode="&#x287e;" 
d="M170 400c0 44 36 80 80 80s80 -36 80 -80s-36 -80 -80 -80s-80 36 -80 80zM170 200c0 44 36 80 80 80s80 -36 80 -80s-36 -80 -80 -80s-80 36 -80 80zM420 600c0 44 36 80 80 80s80 -36 80 -80s-36 -80 -80 -80s-80 36 -80 80zM420 400c0 44 36 80 80 80s80 -36 80 -80
s-36 -80 -80 -80s-80 36 -80 80zM420 200c0 44 36 80 80 80s80 -36 80 -80s-36 -80 -80 -80s-80 36 -80 80zM170 0c0 44 36 80 80 80s80 -36 80 -80s-36 -80 -80 -80s-80 36 -80 80zM468 0z" />
    <glyph glyph-name="uni287F" unicode="&#x287f;" 
d="M170 600c0 44 36 80 80 80s80 -36 80 -80s-36 -80 -80 -80s-80 36 -80 80zM170 400c0 44 36 80 80 80s80 -36 80 -80s-36 -80 -80 -80s-80 36 -80 80zM170 200c0 44 36 80 80 80s80 -36 80 -80s-36 -80 -80 -80s-80 36 -80 80zM420 600c0 44 36 80 80 80s80 -36 80 -80
s-36 -80 -80 -80s-80 36 -80 80zM420 400c0 44 36 80 80 80s80 -36 80 -80s-36 -80 -80 -80s-80 36 -80 80zM420 200c0 44 36 80 80 80s80 -36 80 -80s-36 -80 -80 -80s-80 36 -80 80zM170 0c0 44 36 80 80 80s80 -36 80 -80s-36 -80 -80 -80s-80 36 -80 80zM468 0z" />
    <glyph glyph-name="uni2880" unicode="&#x2880;" 
d="M420 0c0 44 36 80 80 80s80 -36 80 -80s-36 -80 -80 -80s-80 36 -80 80z" />
    <glyph glyph-name="uni2881" unicode="&#x2881;" 
d="M170 600c0 44 36 80 80 80s80 -36 80 -80s-36 -80 -80 -80s-80 36 -80 80zM420 0c0 44 36 80 80 80s80 -36 80 -80s-36 -80 -80 -80s-80 36 -80 80z" />
    <glyph glyph-name="uni2882" unicode="&#x2882;" 
d="M170 400c0 44 36 80 80 80s80 -36 80 -80s-36 -80 -80 -80s-80 36 -80 80zM420 0c0 44 36 80 80 80s80 -36 80 -80s-36 -80 -80 -80s-80 36 -80 80z" />
    <glyph glyph-name="uni2883" unicode="&#x2883;" 
d="M170 600c0 44 36 80 80 80s80 -36 80 -80s-36 -80 -80 -80s-80 36 -80 80zM170 400c0 44 36 80 80 80s80 -36 80 -80s-36 -80 -80 -80s-80 36 -80 80zM420 0c0 44 36 80 80 80s80 -36 80 -80s-36 -80 -80 -80s-80 36 -80 80z" />
    <glyph glyph-name="uni2884" unicode="&#x2884;" 
d="M170 200c0 44 36 80 80 80s80 -36 80 -80s-36 -80 -80 -80s-80 36 -80 80zM420 0c0 44 36 80 80 80s80 -36 80 -80s-36 -80 -80 -80s-80 36 -80 80z" />
    <glyph glyph-name="uni2885" unicode="&#x2885;" 
d="M170 600c0 44 36 80 80 80s80 -36 80 -80s-36 -80 -80 -80s-80 36 -80 80zM170 200c0 44 36 80 80 80s80 -36 80 -80s-36 -80 -80 -80s-80 36 -80 80zM420 0c0 44 36 80 80 80s80 -36 80 -80s-36 -80 -80 -80s-80 36 -80 80z" />
    <glyph glyph-name="uni2886" unicode="&#x2886;" 
d="M170 400c0 44 36 80 80 80s80 -36 80 -80s-36 -80 -80 -80s-80 36 -80 80zM170 200c0 44 36 80 80 80s80 -36 80 -80s-36 -80 -80 -80s-80 36 -80 80zM420 0c0 44 36 80 80 80s80 -36 80 -80s-36 -80 -80 -80s-80 36 -80 80z" />
    <glyph glyph-name="uni2887" unicode="&#x2887;" 
d="M170 600c0 44 36 80 80 80s80 -36 80 -80s-36 -80 -80 -80s-80 36 -80 80zM170 400c0 44 36 80 80 80s80 -36 80 -80s-36 -80 -80 -80s-80 36 -80 80zM170 200c0 44 36 80 80 80s80 -36 80 -80s-36 -80 -80 -80s-80 36 -80 80zM420 0c0 44 36 80 80 80s80 -36 80 -80
s-36 -80 -80 -80s-80 36 -80 80z" />
    <glyph glyph-name="uni2888" unicode="&#x2888;" 
d="M420 600c0 44 36 80 80 80s80 -36 80 -80s-36 -80 -80 -80s-80 36 -80 80zM420 0c0 44 36 80 80 80s80 -36 80 -80s-36 -80 -80 -80s-80 36 -80 80z" />
    <glyph glyph-name="uni2889" unicode="&#x2889;" 
d="M170 600c0 44 36 80 80 80s80 -36 80 -80s-36 -80 -80 -80s-80 36 -80 80zM420 600c0 44 36 80 80 80s80 -36 80 -80s-36 -80 -80 -80s-80 36 -80 80zM420 0c0 44 36 80 80 80s80 -36 80 -80s-36 -80 -80 -80s-80 36 -80 80z" />
    <glyph glyph-name="uni288A" unicode="&#x288a;" 
d="M170 400c0 44 36 80 80 80s80 -36 80 -80s-36 -80 -80 -80s-80 36 -80 80zM420 600c0 44 36 80 80 80s80 -36 80 -80s-36 -80 -80 -80s-80 36 -80 80zM420 0c0 44 36 80 80 80s80 -36 80 -80s-36 -80 -80 -80s-80 36 -80 80z" />
    <glyph glyph-name="uni288B" unicode="&#x288b;" 
d="M170 600c0 44 36 80 80 80s80 -36 80 -80s-36 -80 -80 -80s-80 36 -80 80zM170 400c0 44 36 80 80 80s80 -36 80 -80s-36 -80 -80 -80s-80 36 -80 80zM420 600c0 44 36 80 80 80s80 -36 80 -80s-36 -80 -80 -80s-80 36 -80 80zM420 0c0 44 36 80 80 80s80 -36 80 -80
s-36 -80 -80 -80s-80 36 -80 80z" />
    <glyph glyph-name="uni288C" unicode="&#x288c;" 
d="M170 200c0 44 36 80 80 80s80 -36 80 -80s-36 -80 -80 -80s-80 36 -80 80zM420 600c0 44 36 80 80 80s80 -36 80 -80s-36 -80 -80 -80s-80 36 -80 80zM420 0c0 44 36 80 80 80s80 -36 80 -80s-36 -80 -80 -80s-80 36 -80 80z" />
    <glyph glyph-name="uni288D" unicode="&#x288d;" 
d="M170 600c0 44 36 80 80 80s80 -36 80 -80s-36 -80 -80 -80s-80 36 -80 80zM170 200c0 44 36 80 80 80s80 -36 80 -80s-36 -80 -80 -80s-80 36 -80 80zM420 600c0 44 36 80 80 80s80 -36 80 -80s-36 -80 -80 -80s-80 36 -80 80zM420 0c0 44 36 80 80 80s80 -36 80 -80
s-36 -80 -80 -80s-80 36 -80 80z" />
    <glyph glyph-name="uni288E" unicode="&#x288e;" 
d="M170 400c0 44 36 80 80 80s80 -36 80 -80s-36 -80 -80 -80s-80 36 -80 80zM170 200c0 44 36 80 80 80s80 -36 80 -80s-36 -80 -80 -80s-80 36 -80 80zM420 600c0 44 36 80 80 80s80 -36 80 -80s-36 -80 -80 -80s-80 36 -80 80zM420 0c0 44 36 80 80 80s80 -36 80 -80
s-36 -80 -80 -80s-80 36 -80 80z" />
    <glyph glyph-name="uni288F" unicode="&#x288f;" 
d="M170 600c0 44 36 80 80 80s80 -36 80 -80s-36 -80 -80 -80s-80 36 -80 80zM170 400c0 44 36 80 80 80s80 -36 80 -80s-36 -80 -80 -80s-80 36 -80 80zM170 200c0 44 36 80 80 80s80 -36 80 -80s-36 -80 -80 -80s-80 36 -80 80zM420 600c0 44 36 80 80 80s80 -36 80 -80
s-36 -80 -80 -80s-80 36 -80 80zM420 0c0 44 36 80 80 80s80 -36 80 -80s-36 -80 -80 -80s-80 36 -80 80z" />
    <glyph glyph-name="uni2890" unicode="&#x2890;" 
d="M420 400c0 44 36 80 80 80s80 -36 80 -80s-36 -80 -80 -80s-80 36 -80 80zM420 0c0 44 36 80 80 80s80 -36 80 -80s-36 -80 -80 -80s-80 36 -80 80z" />
    <glyph glyph-name="uni2891" unicode="&#x2891;" 
d="M170 600c0 44 36 80 80 80s80 -36 80 -80s-36 -80 -80 -80s-80 36 -80 80zM420 400c0 44 36 80 80 80s80 -36 80 -80s-36 -80 -80 -80s-80 36 -80 80zM420 0c0 44 36 80 80 80s80 -36 80 -80s-36 -80 -80 -80s-80 36 -80 80z" />
    <glyph glyph-name="uni2892" unicode="&#x2892;" 
d="M170 400c0 44 36 80 80 80s80 -36 80 -80s-36 -80 -80 -80s-80 36 -80 80zM420 400c0 44 36 80 80 80s80 -36 80 -80s-36 -80 -80 -80s-80 36 -80 80zM420 0c0 44 36 80 80 80s80 -36 80 -80s-36 -80 -80 -80s-80 36 -80 80z" />
    <glyph glyph-name="uni2893" unicode="&#x2893;" 
d="M170 600c0 44 36 80 80 80s80 -36 80 -80s-36 -80 -80 -80s-80 36 -80 80zM170 400c0 44 36 80 80 80s80 -36 80 -80s-36 -80 -80 -80s-80 36 -80 80zM420 400c0 44 36 80 80 80s80 -36 80 -80s-36 -80 -80 -80s-80 36 -80 80zM420 0c0 44 36 80 80 80s80 -36 80 -80
s-36 -80 -80 -80s-80 36 -80 80z" />
    <glyph glyph-name="uni2894" unicode="&#x2894;" 
d="M170 200c0 44 36 80 80 80s80 -36 80 -80s-36 -80 -80 -80s-80 36 -80 80zM420 400c0 44 36 80 80 80s80 -36 80 -80s-36 -80 -80 -80s-80 36 -80 80zM420 0c0 44 36 80 80 80s80 -36 80 -80s-36 -80 -80 -80s-80 36 -80 80z" />
    <glyph glyph-name="uni2895" unicode="&#x2895;" 
d="M170 600c0 44 36 80 80 80s80 -36 80 -80s-36 -80 -80 -80s-80 36 -80 80zM170 200c0 44 36 80 80 80s80 -36 80 -80s-36 -80 -80 -80s-80 36 -80 80zM420 400c0 44 36 80 80 80s80 -36 80 -80s-36 -80 -80 -80s-80 36 -80 80zM420 0c0 44 36 80 80 80s80 -36 80 -80
s-36 -80 -80 -80s-80 36 -80 80z" />
    <glyph glyph-name="uni2896" unicode="&#x2896;" 
d="M170 400c0 44 36 80 80 80s80 -36 80 -80s-36 -80 -80 -80s-80 36 -80 80zM170 200c0 44 36 80 80 80s80 -36 80 -80s-36 -80 -80 -80s-80 36 -80 80zM420 400c0 44 36 80 80 80s80 -36 80 -80s-36 -80 -80 -80s-80 36 -80 80zM420 0c0 44 36 80 80 80s80 -36 80 -80
s-36 -80 -80 -80s-80 36 -80 80z" />
    <glyph glyph-name="uni2897" unicode="&#x2897;" 
d="M170 600c0 44 36 80 80 80s80 -36 80 -80s-36 -80 -80 -80s-80 36 -80 80zM170 400c0 44 36 80 80 80s80 -36 80 -80s-36 -80 -80 -80s-80 36 -80 80zM170 200c0 44 36 80 80 80s80 -36 80 -80s-36 -80 -80 -80s-80 36 -80 80zM420 400c0 44 36 80 80 80s80 -36 80 -80
s-36 -80 -80 -80s-80 36 -80 80zM420 0c0 44 36 80 80 80s80 -36 80 -80s-36 -80 -80 -80s-80 36 -80 80z" />
    <glyph glyph-name="uni2898" unicode="&#x2898;" 
d="M420 600c0 44 36 80 80 80s80 -36 80 -80s-36 -80 -80 -80s-80 36 -80 80zM420 400c0 44 36 80 80 80s80 -36 80 -80s-36 -80 -80 -80s-80 36 -80 80zM420 0c0 44 36 80 80 80s80 -36 80 -80s-36 -80 -80 -80s-80 36 -80 80z" />
    <glyph glyph-name="uni2899" unicode="&#x2899;" 
d="M170 600c0 44 36 80 80 80s80 -36 80 -80s-36 -80 -80 -80s-80 36 -80 80zM420 600c0 44 36 80 80 80s80 -36 80 -80s-36 -80 -80 -80s-80 36 -80 80zM420 400c0 44 36 80 80 80s80 -36 80 -80s-36 -80 -80 -80s-80 36 -80 80zM420 0c0 44 36 80 80 80s80 -36 80 -80
s-36 -80 -80 -80s-80 36 -80 80z" />
    <glyph glyph-name="uni289A" unicode="&#x289a;" 
d="M170 400c0 44 36 80 80 80s80 -36 80 -80s-36 -80 -80 -80s-80 36 -80 80zM420 600c0 44 36 80 80 80s80 -36 80 -80s-36 -80 -80 -80s-80 36 -80 80zM420 400c0 44 36 80 80 80s80 -36 80 -80s-36 -80 -80 -80s-80 36 -80 80zM420 0c0 44 36 80 80 80s80 -36 80 -80
s-36 -80 -80 -80s-80 36 -80 80z" />
    <glyph glyph-name="uni289B" unicode="&#x289b;" 
d="M170 600c0 44 36 80 80 80s80 -36 80 -80s-36 -80 -80 -80s-80 36 -80 80zM170 400c0 44 36 80 80 80s80 -36 80 -80s-36 -80 -80 -80s-80 36 -80 80zM420 600c0 44 36 80 80 80s80 -36 80 -80s-36 -80 -80 -80s-80 36 -80 80zM420 400c0 44 36 80 80 80s80 -36 80 -80
s-36 -80 -80 -80s-80 36 -80 80zM420 0c0 44 36 80 80 80s80 -36 80 -80s-36 -80 -80 -80s-80 36 -80 80z" />
    <glyph glyph-name="uni289C" unicode="&#x289c;" 
d="M170 200c0 44 36 80 80 80s80 -36 80 -80s-36 -80 -80 -80s-80 36 -80 80zM420 600c0 44 36 80 80 80s80 -36 80 -80s-36 -80 -80 -80s-80 36 -80 80zM420 400c0 44 36 80 80 80s80 -36 80 -80s-36 -80 -80 -80s-80 36 -80 80zM420 0c0 44 36 80 80 80s80 -36 80 -80
s-36 -80 -80 -80s-80 36 -80 80z" />
    <glyph glyph-name="uni289D" unicode="&#x289d;" 
d="M170 600c0 44 36 80 80 80s80 -36 80 -80s-36 -80 -80 -80s-80 36 -80 80zM170 200c0 44 36 80 80 80s80 -36 80 -80s-36 -80 -80 -80s-80 36 -80 80zM420 600c0 44 36 80 80 80s80 -36 80 -80s-36 -80 -80 -80s-80 36 -80 80zM420 400c0 44 36 80 80 80s80 -36 80 -80
s-36 -80 -80 -80s-80 36 -80 80zM420 0c0 44 36 80 80 80s80 -36 80 -80s-36 -80 -80 -80s-80 36 -80 80z" />
    <glyph glyph-name="uni289E" unicode="&#x289e;" 
d="M170 400c0 44 36 80 80 80s80 -36 80 -80s-36 -80 -80 -80s-80 36 -80 80zM170 200c0 44 36 80 80 80s80 -36 80 -80s-36 -80 -80 -80s-80 36 -80 80zM420 600c0 44 36 80 80 80s80 -36 80 -80s-36 -80 -80 -80s-80 36 -80 80zM420 400c0 44 36 80 80 80s80 -36 80 -80
s-36 -80 -80 -80s-80 36 -80 80zM420 0c0 44 36 80 80 80s80 -36 80 -80s-36 -80 -80 -80s-80 36 -80 80z" />
    <glyph glyph-name="uni289F" unicode="&#x289f;" 
d="M170 600c0 44 36 80 80 80s80 -36 80 -80s-36 -80 -80 -80s-80 36 -80 80zM170 400c0 44 36 80 80 80s80 -36 80 -80s-36 -80 -80 -80s-80 36 -80 80zM170 200c0 44 36 80 80 80s80 -36 80 -80s-36 -80 -80 -80s-80 36 -80 80zM420 600c0 44 36 80 80 80s80 -36 80 -80
s-36 -80 -80 -80s-80 36 -80 80zM420 400c0 44 36 80 80 80s80 -36 80 -80s-36 -80 -80 -80s-80 36 -80 80zM420 0c0 44 36 80 80 80s80 -36 80 -80s-36 -80 -80 -80s-80 36 -80 80z" />
    <glyph glyph-name="uni28A0" unicode="&#x28a0;" 
d="M420 200c0 44 36 80 80 80s80 -36 80 -80s-36 -80 -80 -80s-80 36 -80 80zM420 0c0 44 36 80 80 80s80 -36 80 -80s-36 -80 -80 -80s-80 36 -80 80z" />
    <glyph glyph-name="uni28A1" unicode="&#x28a1;" 
d="M170 600c0 44 36 80 80 80s80 -36 80 -80s-36 -80 -80 -80s-80 36 -80 80zM420 200c0 44 36 80 80 80s80 -36 80 -80s-36 -80 -80 -80s-80 36 -80 80zM420 0c0 44 36 80 80 80s80 -36 80 -80s-36 -80 -80 -80s-80 36 -80 80z" />
    <glyph glyph-name="uni28A2" unicode="&#x28a2;" 
d="M170 400c0 44 36 80 80 80s80 -36 80 -80s-36 -80 -80 -80s-80 36 -80 80zM420 200c0 44 36 80 80 80s80 -36 80 -80s-36 -80 -80 -80s-80 36 -80 80zM420 0c0 44 36 80 80 80s80 -36 80 -80s-36 -80 -80 -80s-80 36 -80 80z" />
    <glyph glyph-name="uni28A3" unicode="&#x28a3;" 
d="M170 600c0 44 36 80 80 80s80 -36 80 -80s-36 -80 -80 -80s-80 36 -80 80zM170 400c0 44 36 80 80 80s80 -36 80 -80s-36 -80 -80 -80s-80 36 -80 80zM420 200c0 44 36 80 80 80s80 -36 80 -80s-36 -80 -80 -80s-80 36 -80 80zM420 0c0 44 36 80 80 80s80 -36 80 -80
s-36 -80 -80 -80s-80 36 -80 80z" />
    <glyph glyph-name="uni28A4" unicode="&#x28a4;" 
d="M170 200c0 44 36 80 80 80s80 -36 80 -80s-36 -80 -80 -80s-80 36 -80 80zM420 200c0 44 36 80 80 80s80 -36 80 -80s-36 -80 -80 -80s-80 36 -80 80zM420 0c0 44 36 80 80 80s80 -36 80 -80s-36 -80 -80 -80s-80 36 -80 80z" />
    <glyph glyph-name="uni28A5" unicode="&#x28a5;" 
d="M170 600c0 44 36 80 80 80s80 -36 80 -80s-36 -80 -80 -80s-80 36 -80 80zM170 200c0 44 36 80 80 80s80 -36 80 -80s-36 -80 -80 -80s-80 36 -80 80zM420 200c0 44 36 80 80 80s80 -36 80 -80s-36 -80 -80 -80s-80 36 -80 80zM420 0c0 44 36 80 80 80s80 -36 80 -80
s-36 -80 -80 -80s-80 36 -80 80z" />
    <glyph glyph-name="uni28A6" unicode="&#x28a6;" 
d="M170 400c0 44 36 80 80 80s80 -36 80 -80s-36 -80 -80 -80s-80 36 -80 80zM170 200c0 44 36 80 80 80s80 -36 80 -80s-36 -80 -80 -80s-80 36 -80 80zM420 200c0 44 36 80 80 80s80 -36 80 -80s-36 -80 -80 -80s-80 36 -80 80zM420 0c0 44 36 80 80 80s80 -36 80 -80
s-36 -80 -80 -80s-80 36 -80 80z" />
    <glyph glyph-name="uni28A7" unicode="&#x28a7;" 
d="M170 600c0 44 36 80 80 80s80 -36 80 -80s-36 -80 -80 -80s-80 36 -80 80zM170 400c0 44 36 80 80 80s80 -36 80 -80s-36 -80 -80 -80s-80 36 -80 80zM170 200c0 44 36 80 80 80s80 -36 80 -80s-36 -80 -80 -80s-80 36 -80 80zM420 200c0 44 36 80 80 80s80 -36 80 -80
s-36 -80 -80 -80s-80 36 -80 80zM420 0c0 44 36 80 80 80s80 -36 80 -80s-36 -80 -80 -80s-80 36 -80 80z" />
    <glyph glyph-name="uni28A8" unicode="&#x28a8;" 
d="M420 600c0 44 36 80 80 80s80 -36 80 -80s-36 -80 -80 -80s-80 36 -80 80zM420 200c0 44 36 80 80 80s80 -36 80 -80s-36 -80 -80 -80s-80 36 -80 80zM420 0c0 44 36 80 80 80s80 -36 80 -80s-36 -80 -80 -80s-80 36 -80 80z" />
    <glyph glyph-name="uni28A9" unicode="&#x28a9;" 
d="M170 600c0 44 36 80 80 80s80 -36 80 -80s-36 -80 -80 -80s-80 36 -80 80zM420 600c0 44 36 80 80 80s80 -36 80 -80s-36 -80 -80 -80s-80 36 -80 80zM420 200c0 44 36 80 80 80s80 -36 80 -80s-36 -80 -80 -80s-80 36 -80 80zM420 0c0 44 36 80 80 80s80 -36 80 -80
s-36 -80 -80 -80s-80 36 -80 80z" />
    <glyph glyph-name="uni28AA" unicode="&#x28aa;" 
d="M170 400c0 44 36 80 80 80s80 -36 80 -80s-36 -80 -80 -80s-80 36 -80 80zM420 600c0 44 36 80 80 80s80 -36 80 -80s-36 -80 -80 -80s-80 36 -80 80zM420 200c0 44 36 80 80 80s80 -36 80 -80s-36 -80 -80 -80s-80 36 -80 80zM420 0c0 44 36 80 80 80s80 -36 80 -80
s-36 -80 -80 -80s-80 36 -80 80z" />
    <glyph glyph-name="uni28AB" unicode="&#x28ab;" 
d="M170 600c0 44 36 80 80 80s80 -36 80 -80s-36 -80 -80 -80s-80 36 -80 80zM170 400c0 44 36 80 80 80s80 -36 80 -80s-36 -80 -80 -80s-80 36 -80 80zM420 600c0 44 36 80 80 80s80 -36 80 -80s-36 -80 -80 -80s-80 36 -80 80zM420 200c0 44 36 80 80 80s80 -36 80 -80
s-36 -80 -80 -80s-80 36 -80 80zM420 0c0 44 36 80 80 80s80 -36 80 -80s-36 -80 -80 -80s-80 36 -80 80z" />
    <glyph glyph-name="uni28AC" unicode="&#x28ac;" 
d="M170 200c0 44 36 80 80 80s80 -36 80 -80s-36 -80 -80 -80s-80 36 -80 80zM420 600c0 44 36 80 80 80s80 -36 80 -80s-36 -80 -80 -80s-80 36 -80 80zM420 200c0 44 36 80 80 80s80 -36 80 -80s-36 -80 -80 -80s-80 36 -80 80zM420 0c0 44 36 80 80 80s80 -36 80 -80
s-36 -80 -80 -80s-80 36 -80 80z" />
    <glyph glyph-name="uni28AD" unicode="&#x28ad;" 
d="M170 600c0 44 36 80 80 80s80 -36 80 -80s-36 -80 -80 -80s-80 36 -80 80zM170 200c0 44 36 80 80 80s80 -36 80 -80s-36 -80 -80 -80s-80 36 -80 80zM420 600c0 44 36 80 80 80s80 -36 80 -80s-36 -80 -80 -80s-80 36 -80 80zM420 200c0 44 36 80 80 80s80 -36 80 -80
s-36 -80 -80 -80s-80 36 -80 80zM420 0c0 44 36 80 80 80s80 -36 80 -80s-36 -80 -80 -80s-80 36 -80 80z" />
    <glyph glyph-name="uni28AE" unicode="&#x28ae;" 
d="M170 400c0 44 36 80 80 80s80 -36 80 -80s-36 -80 -80 -80s-80 36 -80 80zM170 200c0 44 36 80 80 80s80 -36 80 -80s-36 -80 -80 -80s-80 36 -80 80zM420 600c0 44 36 80 80 80s80 -36 80 -80s-36 -80 -80 -80s-80 36 -80 80zM420 200c0 44 36 80 80 80s80 -36 80 -80
s-36 -80 -80 -80s-80 36 -80 80zM420 0c0 44 36 80 80 80s80 -36 80 -80s-36 -80 -80 -80s-80 36 -80 80z" />
    <glyph glyph-name="uni28AF" unicode="&#x28af;" 
d="M170 600c0 44 36 80 80 80s80 -36 80 -80s-36 -80 -80 -80s-80 36 -80 80zM170 400c0 44 36 80 80 80s80 -36 80 -80s-36 -80 -80 -80s-80 36 -80 80zM170 200c0 44 36 80 80 80s80 -36 80 -80s-36 -80 -80 -80s-80 36 -80 80zM420 600c0 44 36 80 80 80s80 -36 80 -80
s-36 -80 -80 -80s-80 36 -80 80zM420 200c0 44 36 80 80 80s80 -36 80 -80s-36 -80 -80 -80s-80 36 -80 80zM420 0c0 44 36 80 80 80s80 -36 80 -80s-36 -80 -80 -80s-80 36 -80 80z" />
    <glyph glyph-name="uni28B0" unicode="&#x28b0;" 
d="M420 400c0 44 36 80 80 80s80 -36 80 -80s-36 -80 -80 -80s-80 36 -80 80zM420 200c0 44 36 80 80 80s80 -36 80 -80s-36 -80 -80 -80s-80 36 -80 80zM420 0c0 44 36 80 80 80s80 -36 80 -80s-36 -80 -80 -80s-80 36 -80 80z" />
    <glyph glyph-name="uni28B1" unicode="&#x28b1;" 
d="M170 600c0 44 36 80 80 80s80 -36 80 -80s-36 -80 -80 -80s-80 36 -80 80zM420 400c0 44 36 80 80 80s80 -36 80 -80s-36 -80 -80 -80s-80 36 -80 80zM420 200c0 44 36 80 80 80s80 -36 80 -80s-36 -80 -80 -80s-80 36 -80 80zM420 0c0 44 36 80 80 80s80 -36 80 -80
s-36 -80 -80 -80s-80 36 -80 80z" />
    <glyph glyph-name="uni28B2" unicode="&#x28b2;" 
d="M170 400c0 44 36 80 80 80s80 -36 80 -80s-36 -80 -80 -80s-80 36 -80 80zM420 400c0 44 36 80 80 80s80 -36 80 -80s-36 -80 -80 -80s-80 36 -80 80zM420 200c0 44 36 80 80 80s80 -36 80 -80s-36 -80 -80 -80s-80 36 -80 80zM420 0c0 44 36 80 80 80s80 -36 80 -80
s-36 -80 -80 -80s-80 36 -80 80z" />
    <glyph glyph-name="uni28B3" unicode="&#x28b3;" 
d="M170 600c0 44 36 80 80 80s80 -36 80 -80s-36 -80 -80 -80s-80 36 -80 80zM170 400c0 44 36 80 80 80s80 -36 80 -80s-36 -80 -80 -80s-80 36 -80 80zM420 400c0 44 36 80 80 80s80 -36 80 -80s-36 -80 -80 -80s-80 36 -80 80zM420 200c0 44 36 80 80 80s80 -36 80 -80
s-36 -80 -80 -80s-80 36 -80 80zM420 0c0 44 36 80 80 80s80 -36 80 -80s-36 -80 -80 -80s-80 36 -80 80z" />
    <glyph glyph-name="uni28B4" unicode="&#x28b4;" 
d="M170 200c0 44 36 80 80 80s80 -36 80 -80s-36 -80 -80 -80s-80 36 -80 80zM420 400c0 44 36 80 80 80s80 -36 80 -80s-36 -80 -80 -80s-80 36 -80 80zM420 200c0 44 36 80 80 80s80 -36 80 -80s-36 -80 -80 -80s-80 36 -80 80zM420 0c0 44 36 80 80 80s80 -36 80 -80
s-36 -80 -80 -80s-80 36 -80 80z" />
    <glyph glyph-name="uni28B5" unicode="&#x28b5;" 
d="M170 600c0 44 36 80 80 80s80 -36 80 -80s-36 -80 -80 -80s-80 36 -80 80zM170 200c0 44 36 80 80 80s80 -36 80 -80s-36 -80 -80 -80s-80 36 -80 80zM420 400c0 44 36 80 80 80s80 -36 80 -80s-36 -80 -80 -80s-80 36 -80 80zM420 200c0 44 36 80 80 80s80 -36 80 -80
s-36 -80 -80 -80s-80 36 -80 80zM420 0c0 44 36 80 80 80s80 -36 80 -80s-36 -80 -80 -80s-80 36 -80 80z" />
    <glyph glyph-name="uni28B6" unicode="&#x28b6;" 
d="M170 400c0 44 36 80 80 80s80 -36 80 -80s-36 -80 -80 -80s-80 36 -80 80zM170 200c0 44 36 80 80 80s80 -36 80 -80s-36 -80 -80 -80s-80 36 -80 80zM420 400c0 44 36 80 80 80s80 -36 80 -80s-36 -80 -80 -80s-80 36 -80 80zM420 200c0 44 36 80 80 80s80 -36 80 -80
s-36 -80 -80 -80s-80 36 -80 80zM420 0c0 44 36 80 80 80s80 -36 80 -80s-36 -80 -80 -80s-80 36 -80 80z" />
    <glyph glyph-name="uni28B7" unicode="&#x28b7;" 
d="M170 600c0 44 36 80 80 80s80 -36 80 -80s-36 -80 -80 -80s-80 36 -80 80zM170 400c0 44 36 80 80 80s80 -36 80 -80s-36 -80 -80 -80s-80 36 -80 80zM170 200c0 44 36 80 80 80s80 -36 80 -80s-36 -80 -80 -80s-80 36 -80 80zM420 400c0 44 36 80 80 80s80 -36 80 -80
s-36 -80 -80 -80s-80 36 -80 80zM420 200c0 44 36 80 80 80s80 -36 80 -80s-36 -80 -80 -80s-80 36 -80 80zM420 0c0 44 36 80 80 80s80 -36 80 -80s-36 -80 -80 -80s-80 36 -80 80z" />
    <glyph glyph-name="uni28B8" unicode="&#x28b8;" 
d="M420 600c0 44 36 80 80 80s80 -36 80 -80s-36 -80 -80 -80s-80 36 -80 80zM420 400c0 44 36 80 80 80s80 -36 80 -80s-36 -80 -80 -80s-80 36 -80 80zM420 200c0 44 36 80 80 80s80 -36 80 -80s-36 -80 -80 -80s-80 36 -80 80zM420 0c0 44 36 80 80 80s80 -36 80 -80
s-36 -80 -80 -80s-80 36 -80 80z" />
    <glyph glyph-name="uni28B9" unicode="&#x28b9;" 
d="M170 600c0 44 36 80 80 80s80 -36 80 -80s-36 -80 -80 -80s-80 36 -80 80zM420 600c0 44 36 80 80 80s80 -36 80 -80s-36 -80 -80 -80s-80 36 -80 80zM420 400c0 44 36 80 80 80s80 -36 80 -80s-36 -80 -80 -80s-80 36 -80 80zM420 200c0 44 36 80 80 80s80 -36 80 -80
s-36 -80 -80 -80s-80 36 -80 80zM420 0c0 44 36 80 80 80s80 -36 80 -80s-36 -80 -80 -80s-80 36 -80 80z" />
    <glyph glyph-name="uni28BA" unicode="&#x28ba;" 
d="M170 400c0 44 36 80 80 80s80 -36 80 -80s-36 -80 -80 -80s-80 36 -80 80zM420 600c0 44 36 80 80 80s80 -36 80 -80s-36 -80 -80 -80s-80 36 -80 80zM420 400c0 44 36 80 80 80s80 -36 80 -80s-36 -80 -80 -80s-80 36 -80 80zM420 200c0 44 36 80 80 80s80 -36 80 -80
s-36 -80 -80 -80s-80 36 -80 80zM420 0c0 44 36 80 80 80s80 -36 80 -80s-36 -80 -80 -80s-80 36 -80 80z" />
    <glyph glyph-name="uni28BB" unicode="&#x28bb;" 
d="M170 600c0 44 36 80 80 80s80 -36 80 -80s-36 -80 -80 -80s-80 36 -80 80zM170 400c0 44 36 80 80 80s80 -36 80 -80s-36 -80 -80 -80s-80 36 -80 80zM420 600c0 44 36 80 80 80s80 -36 80 -80s-36 -80 -80 -80s-80 36 -80 80zM420 400c0 44 36 80 80 80s80 -36 80 -80
s-36 -80 -80 -80s-80 36 -80 80zM420 200c0 44 36 80 80 80s80 -36 80 -80s-36 -80 -80 -80s-80 36 -80 80zM420 0c0 44 36 80 80 80s80 -36 80 -80s-36 -80 -80 -80s-80 36 -80 80z" />
    <glyph glyph-name="uni28BC" unicode="&#x28bc;" 
d="M170 200c0 44 36 80 80 80s80 -36 80 -80s-36 -80 -80 -80s-80 36 -80 80zM420 600c0 44 36 80 80 80s80 -36 80 -80s-36 -80 -80 -80s-80 36 -80 80zM420 400c0 44 36 80 80 80s80 -36 80 -80s-36 -80 -80 -80s-80 36 -80 80zM420 200c0 44 36 80 80 80s80 -36 80 -80
s-36 -80 -80 -80s-80 36 -80 80zM420 0c0 44 36 80 80 80s80 -36 80 -80s-36 -80 -80 -80s-80 36 -80 80z" />
    <glyph glyph-name="uni28BD" unicode="&#x28bd;" 
d="M170 600c0 44 36 80 80 80s80 -36 80 -80s-36 -80 -80 -80s-80 36 -80 80zM170 200c0 44 36 80 80 80s80 -36 80 -80s-36 -80 -80 -80s-80 36 -80 80zM420 600c0 44 36 80 80 80s80 -36 80 -80s-36 -80 -80 -80s-80 36 -80 80zM420 400c0 44 36 80 80 80s80 -36 80 -80
s-36 -80 -80 -80s-80 36 -80 80zM420 200c0 44 36 80 80 80s80 -36 80 -80s-36 -80 -80 -80s-80 36 -80 80zM420 0c0 44 36 80 80 80s80 -36 80 -80s-36 -80 -80 -80s-80 36 -80 80z" />
    <glyph glyph-name="uni28BE" unicode="&#x28be;" 
d="M170 400c0 44 36 80 80 80s80 -36 80 -80s-36 -80 -80 -80s-80 36 -80 80zM170 200c0 44 36 80 80 80s80 -36 80 -80s-36 -80 -80 -80s-80 36 -80 80zM420 600c0 44 36 80 80 80s80 -36 80 -80s-36 -80 -80 -80s-80 36 -80 80zM420 400c0 44 36 80 80 80s80 -36 80 -80
s-36 -80 -80 -80s-80 36 -80 80zM420 200c0 44 36 80 80 80s80 -36 80 -80s-36 -80 -80 -80s-80 36 -80 80zM420 0c0 44 36 80 80 80s80 -36 80 -80s-36 -80 -80 -80s-80 36 -80 80z" />
    <glyph glyph-name="uni28BF" unicode="&#x28bf;" 
d="M170 600c0 44 36 80 80 80s80 -36 80 -80s-36 -80 -80 -80s-80 36 -80 80zM170 400c0 44 36 80 80 80s80 -36 80 -80s-36 -80 -80 -80s-80 36 -80 80zM170 200c0 44 36 80 80 80s80 -36 80 -80s-36 -80 -80 -80s-80 36 -80 80zM420 600c0 44 36 80 80 80s80 -36 80 -80
s-36 -80 -80 -80s-80 36 -80 80zM420 400c0 44 36 80 80 80s80 -36 80 -80s-36 -80 -80 -80s-80 36 -80 80zM420 200c0 44 36 80 80 80s80 -36 80 -80s-36 -80 -80 -80s-80 36 -80 80zM420 0c0 44 36 80 80 80s80 -36 80 -80s-36 -80 -80 -80s-80 36 -80 80z" />
    <glyph glyph-name="uni28C0" unicode="&#x28c0;" 
d="M170 0c0 44 36 80 80 80s80 -36 80 -80s-36 -80 -80 -80s-80 36 -80 80zM420 0c0 44 36 80 80 80s80 -36 80 -80s-36 -80 -80 -80s-80 36 -80 80z" />
    <glyph glyph-name="uni28C1" unicode="&#x28c1;" 
d="M170 600c0 44 36 80 80 80s80 -36 80 -80s-36 -80 -80 -80s-80 36 -80 80zM170 0c0 44 36 80 80 80s80 -36 80 -80s-36 -80 -80 -80s-80 36 -80 80zM420 0c0 44 36 80 80 80s80 -36 80 -80s-36 -80 -80 -80s-80 36 -80 80z" />
    <glyph glyph-name="uni28C2" unicode="&#x28c2;" 
d="M170 400c0 44 36 80 80 80s80 -36 80 -80s-36 -80 -80 -80s-80 36 -80 80zM170 0c0 44 36 80 80 80s80 -36 80 -80s-36 -80 -80 -80s-80 36 -80 80zM420 0c0 44 36 80 80 80s80 -36 80 -80s-36 -80 -80 -80s-80 36 -80 80z" />
    <glyph glyph-name="uni28C3" unicode="&#x28c3;" 
d="M170 600c0 44 36 80 80 80s80 -36 80 -80s-36 -80 -80 -80s-80 36 -80 80zM170 400c0 44 36 80 80 80s80 -36 80 -80s-36 -80 -80 -80s-80 36 -80 80zM170 0c0 44 36 80 80 80s80 -36 80 -80s-36 -80 -80 -80s-80 36 -80 80zM420 0c0 44 36 80 80 80s80 -36 80 -80
s-36 -80 -80 -80s-80 36 -80 80z" />
    <glyph glyph-name="uni28C4" unicode="&#x28c4;" 
d="M170 200c0 44 36 80 80 80s80 -36 80 -80s-36 -80 -80 -80s-80 36 -80 80zM170 0c0 44 36 80 80 80s80 -36 80 -80s-36 -80 -80 -80s-80 36 -80 80zM420 0c0 44 36 80 80 80s80 -36 80 -80s-36 -80 -80 -80s-80 36 -80 80z" />
    <glyph glyph-name="uni28C5" unicode="&#x28c5;" 
d="M170 600c0 44 36 80 80 80s80 -36 80 -80s-36 -80 -80 -80s-80 36 -80 80zM170 200c0 44 36 80 80 80s80 -36 80 -80s-36 -80 -80 -80s-80 36 -80 80zM170 0c0 44 36 80 80 80s80 -36 80 -80s-36 -80 -80 -80s-80 36 -80 80zM420 0c0 44 36 80 80 80s80 -36 80 -80
s-36 -80 -80 -80s-80 36 -80 80z" />
    <glyph glyph-name="uni28C6" unicode="&#x28c6;" 
d="M170 400c0 44 36 80 80 80s80 -36 80 -80s-36 -80 -80 -80s-80 36 -80 80zM170 200c0 44 36 80 80 80s80 -36 80 -80s-36 -80 -80 -80s-80 36 -80 80zM170 0c0 44 36 80 80 80s80 -36 80 -80s-36 -80 -80 -80s-80 36 -80 80zM420 0c0 44 36 80 80 80s80 -36 80 -80
s-36 -80 -80 -80s-80 36 -80 80z" />
    <glyph glyph-name="uni28C7" unicode="&#x28c7;" 
d="M170 600c0 44 36 80 80 80s80 -36 80 -80s-36 -80 -80 -80s-80 36 -80 80zM170 400c0 44 36 80 80 80s80 -36 80 -80s-36 -80 -80 -80s-80 36 -80 80zM170 200c0 44 36 80 80 80s80 -36 80 -80s-36 -80 -80 -80s-80 36 -80 80zM170 0c0 44 36 80 80 80s80 -36 80 -80
s-36 -80 -80 -80s-80 36 -80 80zM420 0c0 44 36 80 80 80s80 -36 80 -80s-36 -80 -80 -80s-80 36 -80 80z" />
    <glyph glyph-name="uni28C8" unicode="&#x28c8;" 
d="M420 600c0 44 36 80 80 80s80 -36 80 -80s-36 -80 -80 -80s-80 36 -80 80zM170 0c0 44 36 80 80 80s80 -36 80 -80s-36 -80 -80 -80s-80 36 -80 80zM420 0c0 44 36 80 80 80s80 -36 80 -80s-36 -80 -80 -80s-80 36 -80 80z" />
    <glyph glyph-name="uni28C9" unicode="&#x28c9;" 
d="M170 600c0 44 36 80 80 80s80 -36 80 -80s-36 -80 -80 -80s-80 36 -80 80zM420 600c0 44 36 80 80 80s80 -36 80 -80s-36 -80 -80 -80s-80 36 -80 80zM170 0c0 44 36 80 80 80s80 -36 80 -80s-36 -80 -80 -80s-80 36 -80 80zM420 0c0 44 36 80 80 80s80 -36 80 -80
s-36 -80 -80 -80s-80 36 -80 80z" />
    <glyph glyph-name="uni28CA" unicode="&#x28ca;" 
d="M170 400c0 44 36 80 80 80s80 -36 80 -80s-36 -80 -80 -80s-80 36 -80 80zM420 600c0 44 36 80 80 80s80 -36 80 -80s-36 -80 -80 -80s-80 36 -80 80zM170 0c0 44 36 80 80 80s80 -36 80 -80s-36 -80 -80 -80s-80 36 -80 80zM420 0c0 44 36 80 80 80s80 -36 80 -80
s-36 -80 -80 -80s-80 36 -80 80z" />
    <glyph glyph-name="uni28CB" unicode="&#x28cb;" 
d="M170 600c0 44 36 80 80 80s80 -36 80 -80s-36 -80 -80 -80s-80 36 -80 80zM170 400c0 44 36 80 80 80s80 -36 80 -80s-36 -80 -80 -80s-80 36 -80 80zM420 600c0 44 36 80 80 80s80 -36 80 -80s-36 -80 -80 -80s-80 36 -80 80zM170 0c0 44 36 80 80 80s80 -36 80 -80
s-36 -80 -80 -80s-80 36 -80 80zM420 0c0 44 36 80 80 80s80 -36 80 -80s-36 -80 -80 -80s-80 36 -80 80z" />
    <glyph glyph-name="uni28CC" unicode="&#x28cc;" 
d="M170 200c0 44 36 80 80 80s80 -36 80 -80s-36 -80 -80 -80s-80 36 -80 80zM420 600c0 44 36 80 80 80s80 -36 80 -80s-36 -80 -80 -80s-80 36 -80 80zM170 0c0 44 36 80 80 80s80 -36 80 -80s-36 -80 -80 -80s-80 36 -80 80zM420 0c0 44 36 80 80 80s80 -36 80 -80
s-36 -80 -80 -80s-80 36 -80 80z" />
    <glyph glyph-name="uni28CD" unicode="&#x28cd;" 
d="M170 600c0 44 36 80 80 80s80 -36 80 -80s-36 -80 -80 -80s-80 36 -80 80zM170 200c0 44 36 80 80 80s80 -36 80 -80s-36 -80 -80 -80s-80 36 -80 80zM420 600c0 44 36 80 80 80s80 -36 80 -80s-36 -80 -80 -80s-80 36 -80 80zM170 0c0 44 36 80 80 80s80 -36 80 -80
s-36 -80 -80 -80s-80 36 -80 80zM420 0c0 44 36 80 80 80s80 -36 80 -80s-36 -80 -80 -80s-80 36 -80 80z" />
    <glyph glyph-name="uni28CE" unicode="&#x28ce;" 
d="M170 400c0 44 36 80 80 80s80 -36 80 -80s-36 -80 -80 -80s-80 36 -80 80zM170 200c0 44 36 80 80 80s80 -36 80 -80s-36 -80 -80 -80s-80 36 -80 80zM420 600c0 44 36 80 80 80s80 -36 80 -80s-36 -80 -80 -80s-80 36 -80 80zM170 0c0 44 36 80 80 80s80 -36 80 -80
s-36 -80 -80 -80s-80 36 -80 80zM420 0c0 44 36 80 80 80s80 -36 80 -80s-36 -80 -80 -80s-80 36 -80 80z" />
    <glyph glyph-name="uni28CF" unicode="&#x28cf;" 
d="M170 600c0 44 36 80 80 80s80 -36 80 -80s-36 -80 -80 -80s-80 36 -80 80zM170 400c0 44 36 80 80 80s80 -36 80 -80s-36 -80 -80 -80s-80 36 -80 80zM170 200c0 44 36 80 80 80s80 -36 80 -80s-36 -80 -80 -80s-80 36 -80 80zM420 600c0 44 36 80 80 80s80 -36 80 -80
s-36 -80 -80 -80s-80 36 -80 80zM170 0c0 44 36 80 80 80s80 -36 80 -80s-36 -80 -80 -80s-80 36 -80 80zM420 0c0 44 36 80 80 80s80 -36 80 -80s-36 -80 -80 -80s-80 36 -80 80z" />
    <glyph glyph-name="uni28D0" unicode="&#x28d0;" 
d="M420 400c0 44 36 80 80 80s80 -36 80 -80s-36 -80 -80 -80s-80 36 -80 80zM170 0c0 44 36 80 80 80s80 -36 80 -80s-36 -80 -80 -80s-80 36 -80 80zM420 0c0 44 36 80 80 80s80 -36 80 -80s-36 -80 -80 -80s-80 36 -80 80z" />
    <glyph glyph-name="uni28D1" unicode="&#x28d1;" 
d="M170 600c0 44 36 80 80 80s80 -36 80 -80s-36 -80 -80 -80s-80 36 -80 80zM420 400c0 44 36 80 80 80s80 -36 80 -80s-36 -80 -80 -80s-80 36 -80 80zM170 0c0 44 36 80 80 80s80 -36 80 -80s-36 -80 -80 -80s-80 36 -80 80zM420 0c0 44 36 80 80 80s80 -36 80 -80
s-36 -80 -80 -80s-80 36 -80 80z" />
    <glyph glyph-name="uni28D2" unicode="&#x28d2;" 
d="M170 400c0 44 36 80 80 80s80 -36 80 -80s-36 -80 -80 -80s-80 36 -80 80zM420 400c0 44 36 80 80 80s80 -36 80 -80s-36 -80 -80 -80s-80 36 -80 80zM170 0c0 44 36 80 80 80s80 -36 80 -80s-36 -80 -80 -80s-80 36 -80 80zM420 0c0 44 36 80 80 80s80 -36 80 -80
s-36 -80 -80 -80s-80 36 -80 80z" />
    <glyph glyph-name="uni28D3" unicode="&#x28d3;" 
d="M170 600c0 44 36 80 80 80s80 -36 80 -80s-36 -80 -80 -80s-80 36 -80 80zM170 400c0 44 36 80 80 80s80 -36 80 -80s-36 -80 -80 -80s-80 36 -80 80zM420 400c0 44 36 80 80 80s80 -36 80 -80s-36 -80 -80 -80s-80 36 -80 80zM170 0c0 44 36 80 80 80s80 -36 80 -80
s-36 -80 -80 -80s-80 36 -80 80zM420 0c0 44 36 80 80 80s80 -36 80 -80s-36 -80 -80 -80s-80 36 -80 80z" />
    <glyph glyph-name="uni28D4" unicode="&#x28d4;" 
d="M170 200c0 44 36 80 80 80s80 -36 80 -80s-36 -80 -80 -80s-80 36 -80 80zM420 400c0 44 36 80 80 80s80 -36 80 -80s-36 -80 -80 -80s-80 36 -80 80zM170 0c0 44 36 80 80 80s80 -36 80 -80s-36 -80 -80 -80s-80 36 -80 80zM420 0c0 44 36 80 80 80s80 -36 80 -80
s-36 -80 -80 -80s-80 36 -80 80z" />
    <glyph glyph-name="uni28D5" unicode="&#x28d5;" 
d="M170 600c0 44 36 80 80 80s80 -36 80 -80s-36 -80 -80 -80s-80 36 -80 80zM170 200c0 44 36 80 80 80s80 -36 80 -80s-36 -80 -80 -80s-80 36 -80 80zM420 400c0 44 36 80 80 80s80 -36 80 -80s-36 -80 -80 -80s-80 36 -80 80zM170 0c0 44 36 80 80 80s80 -36 80 -80
s-36 -80 -80 -80s-80 36 -80 80zM420 0c0 44 36 80 80 80s80 -36 80 -80s-36 -80 -80 -80s-80 36 -80 80z" />
    <glyph glyph-name="uni28D6" unicode="&#x28d6;" 
d="M170 400c0 44 36 80 80 80s80 -36 80 -80s-36 -80 -80 -80s-80 36 -80 80zM170 200c0 44 36 80 80 80s80 -36 80 -80s-36 -80 -80 -80s-80 36 -80 80zM420 400c0 44 36 80 80 80s80 -36 80 -80s-36 -80 -80 -80s-80 36 -80 80zM170 0c0 44 36 80 80 80s80 -36 80 -80
s-36 -80 -80 -80s-80 36 -80 80zM420 0c0 44 36 80 80 80s80 -36 80 -80s-36 -80 -80 -80s-80 36 -80 80z" />
    <glyph glyph-name="uni28D7" unicode="&#x28d7;" 
d="M170 600c0 44 36 80 80 80s80 -36 80 -80s-36 -80 -80 -80s-80 36 -80 80zM170 400c0 44 36 80 80 80s80 -36 80 -80s-36 -80 -80 -80s-80 36 -80 80zM170 200c0 44 36 80 80 80s80 -36 80 -80s-36 -80 -80 -80s-80 36 -80 80zM420 400c0 44 36 80 80 80s80 -36 80 -80
s-36 -80 -80 -80s-80 36 -80 80zM170 0c0 44 36 80 80 80s80 -36 80 -80s-36 -80 -80 -80s-80 36 -80 80zM420 0c0 44 36 80 80 80s80 -36 80 -80s-36 -80 -80 -80s-80 36 -80 80z" />
    <glyph glyph-name="uni28D8" unicode="&#x28d8;" 
d="M420 600c0 44 36 80 80 80s80 -36 80 -80s-36 -80 -80 -80s-80 36 -80 80zM420 400c0 44 36 80 80 80s80 -36 80 -80s-36 -80 -80 -80s-80 36 -80 80zM170 0c0 44 36 80 80 80s80 -36 80 -80s-36 -80 -80 -80s-80 36 -80 80zM420 0c0 44 36 80 80 80s80 -36 80 -80
s-36 -80 -80 -80s-80 36 -80 80z" />
    <glyph glyph-name="uni28D9" unicode="&#x28d9;" 
d="M170 600c0 44 36 80 80 80s80 -36 80 -80s-36 -80 -80 -80s-80 36 -80 80zM420 600c0 44 36 80 80 80s80 -36 80 -80s-36 -80 -80 -80s-80 36 -80 80zM420 400c0 44 36 80 80 80s80 -36 80 -80s-36 -80 -80 -80s-80 36 -80 80zM170 0c0 44 36 80 80 80s80 -36 80 -80
s-36 -80 -80 -80s-80 36 -80 80zM420 0c0 44 36 80 80 80s80 -36 80 -80s-36 -80 -80 -80s-80 36 -80 80z" />
    <glyph glyph-name="uni28DA" unicode="&#x28da;" 
d="M170 400c0 44 36 80 80 80s80 -36 80 -80s-36 -80 -80 -80s-80 36 -80 80zM420 600c0 44 36 80 80 80s80 -36 80 -80s-36 -80 -80 -80s-80 36 -80 80zM420 400c0 44 36 80 80 80s80 -36 80 -80s-36 -80 -80 -80s-80 36 -80 80zM170 0c0 44 36 80 80 80s80 -36 80 -80
s-36 -80 -80 -80s-80 36 -80 80zM420 0c0 44 36 80 80 80s80 -36 80 -80s-36 -80 -80 -80s-80 36 -80 80z" />
    <glyph glyph-name="uni28DB" unicode="&#x28db;" 
d="M170 600c0 44 36 80 80 80s80 -36 80 -80s-36 -80 -80 -80s-80 36 -80 80zM170 400c0 44 36 80 80 80s80 -36 80 -80s-36 -80 -80 -80s-80 36 -80 80zM420 600c0 44 36 80 80 80s80 -36 80 -80s-36 -80 -80 -80s-80 36 -80 80zM420 400c0 44 36 80 80 80s80 -36 80 -80
s-36 -80 -80 -80s-80 36 -80 80zM170 0c0 44 36 80 80 80s80 -36 80 -80s-36 -80 -80 -80s-80 36 -80 80zM420 0c0 44 36 80 80 80s80 -36 80 -80s-36 -80 -80 -80s-80 36 -80 80z" />
    <glyph glyph-name="uni28DC" unicode="&#x28dc;" 
d="M170 200c0 44 36 80 80 80s80 -36 80 -80s-36 -80 -80 -80s-80 36 -80 80zM420 600c0 44 36 80 80 80s80 -36 80 -80s-36 -80 -80 -80s-80 36 -80 80zM420 400c0 44 36 80 80 80s80 -36 80 -80s-36 -80 -80 -80s-80 36 -80 80zM170 0c0 44 36 80 80 80s80 -36 80 -80
s-36 -80 -80 -80s-80 36 -80 80zM420 0c0 44 36 80 80 80s80 -36 80 -80s-36 -80 -80 -80s-80 36 -80 80z" />
    <glyph glyph-name="uni28DD" unicode="&#x28dd;" 
d="M170 600c0 44 36 80 80 80s80 -36 80 -80s-36 -80 -80 -80s-80 36 -80 80zM170 200c0 44 36 80 80 80s80 -36 80 -80s-36 -80 -80 -80s-80 36 -80 80zM420 600c0 44 36 80 80 80s80 -36 80 -80s-36 -80 -80 -80s-80 36 -80 80zM420 400c0 44 36 80 80 80s80 -36 80 -80
s-36 -80 -80 -80s-80 36 -80 80zM170 0c0 44 36 80 80 80s80 -36 80 -80s-36 -80 -80 -80s-80 36 -80 80zM420 0c0 44 36 80 80 80s80 -36 80 -80s-36 -80 -80 -80s-80 36 -80 80z" />
    <glyph glyph-name="uni28DE" unicode="&#x28de;" 
d="M170 400c0 44 36 80 80 80s80 -36 80 -80s-36 -80 -80 -80s-80 36 -80 80zM170 200c0 44 36 80 80 80s80 -36 80 -80s-36 -80 -80 -80s-80 36 -80 80zM420 600c0 44 36 80 80 80s80 -36 80 -80s-36 -80 -80 -80s-80 36 -80 80zM420 400c0 44 36 80 80 80s80 -36 80 -80
s-36 -80 -80 -80s-80 36 -80 80zM170 0c0 44 36 80 80 80s80 -36 80 -80s-36 -80 -80 -80s-80 36 -80 80zM420 0c0 44 36 80 80 80s80 -36 80 -80s-36 -80 -80 -80s-80 36 -80 80z" />
    <glyph glyph-name="uni28DF" unicode="&#x28df;" 
d="M170 600c0 44 36 80 80 80s80 -36 80 -80s-36 -80 -80 -80s-80 36 -80 80zM170 400c0 44 36 80 80 80s80 -36 80 -80s-36 -80 -80 -80s-80 36 -80 80zM170 200c0 44 36 80 80 80s80 -36 80 -80s-36 -80 -80 -80s-80 36 -80 80zM420 600c0 44 36 80 80 80s80 -36 80 -80
s-36 -80 -80 -80s-80 36 -80 80zM420 400c0 44 36 80 80 80s80 -36 80 -80s-36 -80 -80 -80s-80 36 -80 80zM170 0c0 44 36 80 80 80s80 -36 80 -80s-36 -80 -80 -80s-80 36 -80 80zM420 0c0 44 36 80 80 80s80 -36 80 -80s-36 -80 -80 -80s-80 36 -80 80z" />
    <glyph glyph-name="uni28E0" unicode="&#x28e0;" 
d="M420 200c0 44 36 80 80 80s80 -36 80 -80s-36 -80 -80 -80s-80 36 -80 80zM170 0c0 44 36 80 80 80s80 -36 80 -80s-36 -80 -80 -80s-80 36 -80 80zM420 0c0 44 36 80 80 80s80 -36 80 -80s-36 -80 -80 -80s-80 36 -80 80z" />
    <glyph glyph-name="uni28E1" unicode="&#x28e1;" 
d="M170 600c0 44 36 80 80 80s80 -36 80 -80s-36 -80 -80 -80s-80 36 -80 80zM420 200c0 44 36 80 80 80s80 -36 80 -80s-36 -80 -80 -80s-80 36 -80 80zM170 0c0 44 36 80 80 80s80 -36 80 -80s-36 -80 -80 -80s-80 36 -80 80zM420 0c0 44 36 80 80 80s80 -36 80 -80
s-36 -80 -80 -80s-80 36 -80 80z" />
    <glyph glyph-name="uni28E2" unicode="&#x28e2;" 
d="M170 400c0 44 36 80 80 80s80 -36 80 -80s-36 -80 -80 -80s-80 36 -80 80zM420 200c0 44 36 80 80 80s80 -36 80 -80s-36 -80 -80 -80s-80 36 -80 80zM170 0c0 44 36 80 80 80s80 -36 80 -80s-36 -80 -80 -80s-80 36 -80 80zM420 0c0 44 36 80 80 80s80 -36 80 -80
s-36 -80 -80 -80s-80 36 -80 80z" />
    <glyph glyph-name="uni28E3" unicode="&#x28e3;" 
d="M170 600c0 44 36 80 80 80s80 -36 80 -80s-36 -80 -80 -80s-80 36 -80 80zM170 400c0 44 36 80 80 80s80 -36 80 -80s-36 -80 -80 -80s-80 36 -80 80zM420 200c0 44 36 80 80 80s80 -36 80 -80s-36 -80 -80 -80s-80 36 -80 80zM170 0c0 44 36 80 80 80s80 -36 80 -80
s-36 -80 -80 -80s-80 36 -80 80zM420 0c0 44 36 80 80 80s80 -36 80 -80s-36 -80 -80 -80s-80 36 -80 80z" />
    <glyph glyph-name="uni28E4" unicode="&#x28e4;" 
d="M170 200c0 44 36 80 80 80s80 -36 80 -80s-36 -80 -80 -80s-80 36 -80 80zM420 200c0 44 36 80 80 80s80 -36 80 -80s-36 -80 -80 -80s-80 36 -80 80zM170 0c0 44 36 80 80 80s80 -36 80 -80s-36 -80 -80 -80s-80 36 -80 80zM420 0c0 44 36 80 80 80s80 -36 80 -80
s-36 -80 -80 -80s-80 36 -80 80z" />
    <glyph glyph-name="uni28E5" unicode="&#x28e5;" 
d="M170 600c0 44 36 80 80 80s80 -36 80 -80s-36 -80 -80 -80s-80 36 -80 80zM170 200c0 44 36 80 80 80s80 -36 80 -80s-36 -80 -80 -80s-80 36 -80 80zM420 200c0 44 36 80 80 80s80 -36 80 -80s-36 -80 -80 -80s-80 36 -80 80zM170 0c0 44 36 80 80 80s80 -36 80 -80
s-36 -80 -80 -80s-80 36 -80 80zM420 0c0 44 36 80 80 80s80 -36 80 -80s-36 -80 -80 -80s-80 36 -80 80z" />
    <glyph glyph-name="uni28E6" unicode="&#x28e6;" 
d="M170 400c0 44 36 80 80 80s80 -36 80 -80s-36 -80 -80 -80s-80 36 -80 80zM170 200c0 44 36 80 80 80s80 -36 80 -80s-36 -80 -80 -80s-80 36 -80 80zM420 200c0 44 36 80 80 80s80 -36 80 -80s-36 -80 -80 -80s-80 36 -80 80zM170 0c0 44 36 80 80 80s80 -36 80 -80
s-36 -80 -80 -80s-80 36 -80 80zM420 0c0 44 36 80 80 80s80 -36 80 -80s-36 -80 -80 -80s-80 36 -80 80z" />
    <glyph glyph-name="uni28E7" unicode="&#x28e7;" 
d="M170 600c0 44 36 80 80 80s80 -36 80 -80s-36 -80 -80 -80s-80 36 -80 80zM170 400c0 44 36 80 80 80s80 -36 80 -80s-36 -80 -80 -80s-80 36 -80 80zM170 200c0 44 36 80 80 80s80 -36 80 -80s-36 -80 -80 -80s-80 36 -80 80zM420 200c0 44 36 80 80 80s80 -36 80 -80
s-36 -80 -80 -80s-80 36 -80 80zM170 0c0 44 36 80 80 80s80 -36 80 -80s-36 -80 -80 -80s-80 36 -80 80zM420 0c0 44 36 80 80 80s80 -36 80 -80s-36 -80 -80 -80s-80 36 -80 80z" />
    <glyph glyph-name="uni28E8" unicode="&#x28e8;" 
d="M420 600c0 44 36 80 80 80s80 -36 80 -80s-36 -80 -80 -80s-80 36 -80 80zM420 200c0 44 36 80 80 80s80 -36 80 -80s-36 -80 -80 -80s-80 36 -80 80zM170 0c0 44 36 80 80 80s80 -36 80 -80s-36 -80 -80 -80s-80 36 -80 80zM420 0c0 44 36 80 80 80s80 -36 80 -80
s-36 -80 -80 -80s-80 36 -80 80z" />
    <glyph glyph-name="uni28E9" unicode="&#x28e9;" 
d="M170 600c0 44 36 80 80 80s80 -36 80 -80s-36 -80 -80 -80s-80 36 -80 80zM420 600c0 44 36 80 80 80s80 -36 80 -80s-36 -80 -80 -80s-80 36 -80 80zM420 200c0 44 36 80 80 80s80 -36 80 -80s-36 -80 -80 -80s-80 36 -80 80zM170 0c0 44 36 80 80 80s80 -36 80 -80
s-36 -80 -80 -80s-80 36 -80 80zM420 0c0 44 36 80 80 80s80 -36 80 -80s-36 -80 -80 -80s-80 36 -80 80z" />
    <glyph glyph-name="uni28EA" unicode="&#x28ea;" 
d="M170 400c0 44 36 80 80 80s80 -36 80 -80s-36 -80 -80 -80s-80 36 -80 80zM420 600c0 44 36 80 80 80s80 -36 80 -80s-36 -80 -80 -80s-80 36 -80 80zM420 200c0 44 36 80 80 80s80 -36 80 -80s-36 -80 -80 -80s-80 36 -80 80zM170 0c0 44 36 80 80 80s80 -36 80 -80
s-36 -80 -80 -80s-80 36 -80 80zM420 0c0 44 36 80 80 80s80 -36 80 -80s-36 -80 -80 -80s-80 36 -80 80z" />
    <glyph glyph-name="uni28EB" unicode="&#x28eb;" 
d="M170 600c0 44 36 80 80 80s80 -36 80 -80s-36 -80 -80 -80s-80 36 -80 80zM170 400c0 44 36 80 80 80s80 -36 80 -80s-36 -80 -80 -80s-80 36 -80 80zM420 600c0 44 36 80 80 80s80 -36 80 -80s-36 -80 -80 -80s-80 36 -80 80zM420 200c0 44 36 80 80 80s80 -36 80 -80
s-36 -80 -80 -80s-80 36 -80 80zM170 0c0 44 36 80 80 80s80 -36 80 -80s-36 -80 -80 -80s-80 36 -80 80zM420 0c0 44 36 80 80 80s80 -36 80 -80s-36 -80 -80 -80s-80 36 -80 80z" />
    <glyph glyph-name="uni28EC" unicode="&#x28ec;" 
d="M170 200c0 44 36 80 80 80s80 -36 80 -80s-36 -80 -80 -80s-80 36 -80 80zM420 600c0 44 36 80 80 80s80 -36 80 -80s-36 -80 -80 -80s-80 36 -80 80zM420 200c0 44 36 80 80 80s80 -36 80 -80s-36 -80 -80 -80s-80 36 -80 80zM170 0c0 44 36 80 80 80s80 -36 80 -80
s-36 -80 -80 -80s-80 36 -80 80zM420 0c0 44 36 80 80 80s80 -36 80 -80s-36 -80 -80 -80s-80 36 -80 80z" />
    <glyph glyph-name="uni28ED" unicode="&#x28ed;" 
d="M170 600c0 44 36 80 80 80s80 -36 80 -80s-36 -80 -80 -80s-80 36 -80 80zM170 200c0 44 36 80 80 80s80 -36 80 -80s-36 -80 -80 -80s-80 36 -80 80zM420 600c0 44 36 80 80 80s80 -36 80 -80s-36 -80 -80 -80s-80 36 -80 80zM420 200c0 44 36 80 80 80s80 -36 80 -80
s-36 -80 -80 -80s-80 36 -80 80zM170 0c0 44 36 80 80 80s80 -36 80 -80s-36 -80 -80 -80s-80 36 -80 80zM420 0c0 44 36 80 80 80s80 -36 80 -80s-36 -80 -80 -80s-80 36 -80 80z" />
    <glyph glyph-name="uni28EE" unicode="&#x28ee;" 
d="M170 400c0 44 36 80 80 80s80 -36 80 -80s-36 -80 -80 -80s-80 36 -80 80zM170 200c0 44 36 80 80 80s80 -36 80 -80s-36 -80 -80 -80s-80 36 -80 80zM420 600c0 44 36 80 80 80s80 -36 80 -80s-36 -80 -80 -80s-80 36 -80 80zM420 200c0 44 36 80 80 80s80 -36 80 -80
s-36 -80 -80 -80s-80 36 -80 80zM170 0c0 44 36 80 80 80s80 -36 80 -80s-36 -80 -80 -80s-80 36 -80 80zM420 0c0 44 36 80 80 80s80 -36 80 -80s-36 -80 -80 -80s-80 36 -80 80z" />
    <glyph glyph-name="uni28EF" unicode="&#x28ef;" 
d="M170 600c0 44 36 80 80 80s80 -36 80 -80s-36 -80 -80 -80s-80 36 -80 80zM170 400c0 44 36 80 80 80s80 -36 80 -80s-36 -80 -80 -80s-80 36 -80 80zM170 200c0 44 36 80 80 80s80 -36 80 -80s-36 -80 -80 -80s-80 36 -80 80zM420 600c0 44 36 80 80 80s80 -36 80 -80
s-36 -80 -80 -80s-80 36 -80 80zM420 200c0 44 36 80 80 80s80 -36 80 -80s-36 -80 -80 -80s-80 36 -80 80zM170 0c0 44 36 80 80 80s80 -36 80 -80s-36 -80 -80 -80s-80 36 -80 80zM420 0c0 44 36 80 80 80s80 -36 80 -80s-36 -80 -80 -80s-80 36 -80 80z" />
    <glyph glyph-name="uni28F0" unicode="&#x28f0;" 
d="M420 400c0 44 36 80 80 80s80 -36 80 -80s-36 -80 -80 -80s-80 36 -80 80zM420 200c0 44 36 80 80 80s80 -36 80 -80s-36 -80 -80 -80s-80 36 -80 80zM170 0c0 44 36 80 80 80s80 -36 80 -80s-36 -80 -80 -80s-80 36 -80 80zM420 0c0 44 36 80 80 80s80 -36 80 -80
s-36 -80 -80 -80s-80 36 -80 80z" />
    <glyph glyph-name="uni28F1" unicode="&#x28f1;" 
d="M170 600c0 44 36 80 80 80s80 -36 80 -80s-36 -80 -80 -80s-80 36 -80 80zM420 400c0 44 36 80 80 80s80 -36 80 -80s-36 -80 -80 -80s-80 36 -80 80zM420 200c0 44 36 80 80 80s80 -36 80 -80s-36 -80 -80 -80s-80 36 -80 80zM170 0c0 44 36 80 80 80s80 -36 80 -80
s-36 -80 -80 -80s-80 36 -80 80zM420 0c0 44 36 80 80 80s80 -36 80 -80s-36 -80 -80 -80s-80 36 -80 80z" />
    <glyph glyph-name="uni28F2" unicode="&#x28f2;" 
d="M170 400c0 44 36 80 80 80s80 -36 80 -80s-36 -80 -80 -80s-80 36 -80 80zM420 400c0 44 36 80 80 80s80 -36 80 -80s-36 -80 -80 -80s-80 36 -80 80zM420 200c0 44 36 80 80 80s80 -36 80 -80s-36 -80 -80 -80s-80 36 -80 80zM170 0c0 44 36 80 80 80s80 -36 80 -80
s-36 -80 -80 -80s-80 36 -80 80zM420 0c0 44 36 80 80 80s80 -36 80 -80s-36 -80 -80 -80s-80 36 -80 80z" />
    <glyph glyph-name="uni28F3" unicode="&#x28f3;" 
d="M170 600c0 44 36 80 80 80s80 -36 80 -80s-36 -80 -80 -80s-80 36 -80 80zM170 400c0 44 36 80 80 80s80 -36 80 -80s-36 -80 -80 -80s-80 36 -80 80zM420 400c0 44 36 80 80 80s80 -36 80 -80s-36 -80 -80 -80s-80 36 -80 80zM420 200c0 44 36 80 80 80s80 -36 80 -80
s-36 -80 -80 -80s-80 36 -80 80zM170 0c0 44 36 80 80 80s80 -36 80 -80s-36 -80 -80 -80s-80 36 -80 80zM420 0c0 44 36 80 80 80s80 -36 80 -80s-36 -80 -80 -80s-80 36 -80 80z" />
    <glyph glyph-name="uni28F4" unicode="&#x28f4;" 
d="M170 200c0 44 36 80 80 80s80 -36 80 -80s-36 -80 -80 -80s-80 36 -80 80zM420 400c0 44 36 80 80 80s80 -36 80 -80s-36 -80 -80 -80s-80 36 -80 80zM420 200c0 44 36 80 80 80s80 -36 80 -80s-36 -80 -80 -80s-80 36 -80 80zM170 0c0 44 36 80 80 80s80 -36 80 -80
s-36 -80 -80 -80s-80 36 -80 80zM420 0c0 44 36 80 80 80s80 -36 80 -80s-36 -80 -80 -80s-80 36 -80 80z" />
    <glyph glyph-name="uni28F5" unicode="&#x28f5;" 
d="M170 600c0 44 36 80 80 80s80 -36 80 -80s-36 -80 -80 -80s-80 36 -80 80zM170 200c0 44 36 80 80 80s80 -36 80 -80s-36 -80 -80 -80s-80 36 -80 80zM420 400c0 44 36 80 80 80s80 -36 80 -80s-36 -80 -80 -80s-80 36 -80 80zM420 200c0 44 36 80 80 80s80 -36 80 -80
s-36 -80 -80 -80s-80 36 -80 80zM170 0c0 44 36 80 80 80s80 -36 80 -80s-36 -80 -80 -80s-80 36 -80 80zM420 0c0 44 36 80 80 80s80 -36 80 -80s-36 -80 -80 -80s-80 36 -80 80z" />
    <glyph glyph-name="uni28F6" unicode="&#x28f6;" 
d="M170 400c0 44 36 80 80 80s80 -36 80 -80s-36 -80 -80 -80s-80 36 -80 80zM170 200c0 44 36 80 80 80s80 -36 80 -80s-36 -80 -80 -80s-80 36 -80 80zM420 400c0 44 36 80 80 80s80 -36 80 -80s-36 -80 -80 -80s-80 36 -80 80zM420 200c0 44 36 80 80 80s80 -36 80 -80
s-36 -80 -80 -80s-80 36 -80 80zM170 0c0 44 36 80 80 80s80 -36 80 -80s-36 -80 -80 -80s-80 36 -80 80zM420 0c0 44 36 80 80 80s80 -36 80 -80s-36 -80 -80 -80s-80 36 -80 80z" />
    <glyph glyph-name="uni28F7" unicode="&#x28f7;" 
d="M170 600c0 44 36 80 80 80s80 -36 80 -80s-36 -80 -80 -80s-80 36 -80 80zM170 400c0 44 36 80 80 80s80 -36 80 -80s-36 -80 -80 -80s-80 36 -80 80zM170 200c0 44 36 80 80 80s80 -36 80 -80s-36 -80 -80 -80s-80 36 -80 80zM420 400c0 44 36 80 80 80s80 -36 80 -80
s-36 -80 -80 -80s-80 36 -80 80zM420 200c0 44 36 80 80 80s80 -36 80 -80s-36 -80 -80 -80s-80 36 -80 80zM170 0c0 44 36 80 80 80s80 -36 80 -80s-36 -80 -80 -80s-80 36 -80 80zM420 0c0 44 36 80 80 80s80 -36 80 -80s-36 -80 -80 -80s-80 36 -80 80z" />
    <glyph glyph-name="uni28F8" unicode="&#x28f8;" 
d="M420 600c0 44 36 80 80 80s80 -36 80 -80s-36 -80 -80 -80s-80 36 -80 80zM420 400c0 44 36 80 80 80s80 -36 80 -80s-36 -80 -80 -80s-80 36 -80 80zM420 200c0 44 36 80 80 80s80 -36 80 -80s-36 -80 -80 -80s-80 36 -80 80zM170 0c0 44 36 80 80 80s80 -36 80 -80
s-36 -80 -80 -80s-80 36 -80 80zM420 0c0 44 36 80 80 80s80 -36 80 -80s-36 -80 -80 -80s-80 36 -80 80z" />
    <glyph glyph-name="uni28F9" unicode="&#x28f9;" 
d="M170 600c0 44 36 80 80 80s80 -36 80 -80s-36 -80 -80 -80s-80 36 -80 80zM420 600c0 44 36 80 80 80s80 -36 80 -80s-36 -80 -80 -80s-80 36 -80 80zM420 400c0 44 36 80 80 80s80 -36 80 -80s-36 -80 -80 -80s-80 36 -80 80zM420 200c0 44 36 80 80 80s80 -36 80 -80
s-36 -80 -80 -80s-80 36 -80 80zM170 0c0 44 36 80 80 80s80 -36 80 -80s-36 -80 -80 -80s-80 36 -80 80zM420 0c0 44 36 80 80 80s80 -36 80 -80s-36 -80 -80 -80s-80 36 -80 80z" />
    <glyph glyph-name="uni28FA" unicode="&#x28fa;" 
d="M170 400c0 44 36 80 80 80s80 -36 80 -80s-36 -80 -80 -80s-80 36 -80 80zM420 600c0 44 36 80 80 80s80 -36 80 -80s-36 -80 -80 -80s-80 36 -80 80zM420 400c0 44 36 80 80 80s80 -36 80 -80s-36 -80 -80 -80s-80 36 -80 80zM420 200c0 44 36 80 80 80s80 -36 80 -80
s-36 -80 -80 -80s-80 36 -80 80zM170 0c0 44 36 80 80 80s80 -36 80 -80s-36 -80 -80 -80s-80 36 -80 80zM420 0c0 44 36 80 80 80s80 -36 80 -80s-36 -80 -80 -80s-80 36 -80 80z" />
    <glyph glyph-name="uni28FB" unicode="&#x28fb;" 
d="M170 600c0 44 36 80 80 80s80 -36 80 -80s-36 -80 -80 -80s-80 36 -80 80zM170 400c0 44 36 80 80 80s80 -36 80 -80s-36 -80 -80 -80s-80 36 -80 80zM420 600c0 44 36 80 80 80s80 -36 80 -80s-36 -80 -80 -80s-80 36 -80 80zM420 400c0 44 36 80 80 80s80 -36 80 -80
s-36 -80 -80 -80s-80 36 -80 80zM420 200c0 44 36 80 80 80s80 -36 80 -80s-36 -80 -80 -80s-80 36 -80 80zM170 0c0 44 36 80 80 80s80 -36 80 -80s-36 -80 -80 -80s-80 36 -80 80zM420 0c0 44 36 80 80 80s80 -36 80 -80s-36 -80 -80 -80s-80 36 -80 80z" />
    <glyph glyph-name="uni28FC" unicode="&#x28fc;" 
d="M170 200c0 44 36 80 80 80s80 -36 80 -80s-36 -80 -80 -80s-80 36 -80 80zM420 600c0 44 36 80 80 80s80 -36 80 -80s-36 -80 -80 -80s-80 36 -80 80zM420 400c0 44 36 80 80 80s80 -36 80 -80s-36 -80 -80 -80s-80 36 -80 80zM420 200c0 44 36 80 80 80s80 -36 80 -80
s-36 -80 -80 -80s-80 36 -80 80zM170 0c0 44 36 80 80 80s80 -36 80 -80s-36 -80 -80 -80s-80 36 -80 80zM420 0c0 44 36 80 80 80s80 -36 80 -80s-36 -80 -80 -80s-80 36 -80 80z" />
    <glyph glyph-name="uni28FD" unicode="&#x28fd;" 
d="M170 600c0 44 36 80 80 80s80 -36 80 -80s-36 -80 -80 -80s-80 36 -80 80zM170 200c0 44 36 80 80 80s80 -36 80 -80s-36 -80 -80 -80s-80 36 -80 80zM420 600c0 44 36 80 80 80s80 -36 80 -80s-36 -80 -80 -80s-80 36 -80 80zM420 400c0 44 36 80 80 80s80 -36 80 -80
s-36 -80 -80 -80s-80 36 -80 80zM420 200c0 44 36 80 80 80s80 -36 80 -80s-36 -80 -80 -80s-80 36 -80 80zM170 0c0 44 36 80 80 80s80 -36 80 -80s-36 -80 -80 -80s-80 36 -80 80zM420 0c0 44 36 80 80 80s80 -36 80 -80s-36 -80 -80 -80s-80 36 -80 80z" />
    <glyph glyph-name="uni28FE" unicode="&#x28fe;" 
d="M170 400c0 44 36 80 80 80s80 -36 80 -80s-36 -80 -80 -80s-80 36 -80 80zM170 200c0 44 36 80 80 80s80 -36 80 -80s-36 -80 -80 -80s-80 36 -80 80zM420 600c0 44 36 80 80 80s80 -36 80 -80s-36 -80 -80 -80s-80 36 -80 80zM420 400c0 44 36 80 80 80s80 -36 80 -80
s-36 -80 -80 -80s-80 36 -80 80zM420 200c0 44 36 80 80 80s80 -36 80 -80s-36 -80 -80 -80s-80 36 -80 80zM170 0c0 44 36 80 80 80s80 -36 80 -80s-36 -80 -80 -80s-80 36 -80 80zM420 0c0 44 36 80 80 80s80 -36 80 -80s-36 -80 -80 -80s-80 36 -80 80z" />
    <glyph glyph-name="uni28FF" unicode="&#x28ff;" 
d="M170 600c0 44 36 80 80 80s80 -36 80 -80s-36 -80 -80 -80s-80 36 -80 80zM170 400c0 44 36 80 80 80s80 -36 80 -80s-36 -80 -80 -80s-80 36 -80 80zM170 200c0 44 36 80 80 80s80 -36 80 -80s-36 -80 -80 -80s-80 36 -80 80zM420 600c0 44 36 80 80 80s80 -36 80 -80
s-36 -80 -80 -80s-80 36 -80 80zM420 400c0 44 36 80 80 80s80 -36 80 -80s-36 -80 -80 -80s-80 36 -80 80zM420 200c0 44 36 80 80 80s80 -36 80 -80s-36 -80 -80 -80s-80 36 -80 80zM170 0c0 44 36 80 80 80s80 -36 80 -80s-36 -80 -80 -80s-80 36 -80 80zM420 0
c0 44 36 80 80 80s80 -36 80 -80s-36 -80 -80 -80s-80 36 -80 80z" />
    <glyph glyph-name="uni01C6" unicode="&#x1c6;" 
d="M150 550c0 55 45 100 100 100s100 -45 100 -100s-45 -100 -100 -100s-100 45 -100 100zM150 300c0 55 45 100 100 100s100 -45 100 -100s-45 -100 -100 -100s-100 45 -100 100zM400 550c0 55 45 100 100 100s100 -45 100 -100s-45 -100 -100 -100s-100 45 -100 100z
M400 300c0 55 45 100 100 100s100 -45 100 -100s-45 -100 -100 -100s-100 45 -100 100zM400 50c0 55 45 100 100 100s100 -45 100 -100s-45 -100 -100 -100s-100 45 -100 100z" />
    <glyph glyph-name="uni01C9" unicode="&#x1c9;" 
d="M150 550c0 55 45 100 100 100s100 -45 100 -100s-45 -100 -100 -100s-100 45 -100 100zM150 300c0 55 45 100 100 100s100 -45 100 -100s-45 -100 -100 -100s-100 45 -100 100zM400 50c0 55 45 100 100 100s100 -45 100 -100s-45 -100 -100 -100s-100 45 -100 100z" />
    <glyph glyph-name="uni01CC" unicode="&#x1cc;" 
d="M150 550c0 55 45 100 100 100s100 -45 100 -100s-45 -100 -100 -100s-100 45 -100 100zM150 300c0 55 45 100 100 100s100 -45 100 -100s-45 -100 -100 -100s-100 45 -100 100zM400 550c0 55 45 100 100 100s100 -45 100 -100s-45 -100 -100 -100s-100 45 -100 100z
M400 50c0 55 45 100 100 100s100 -45 100 -100s-45 -100 -100 -100s-100 45 -100 100z" />
    <glyph glyph-name="uni0080" horiz-adv-x="1000" 
 />
    <glyph glyph-name="cacute" unicode="&#x107;" 
d="M150 550c0 55 45 100 100 100s100 -45 100 -100s-45 -100 -100 -100s-100 45 -100 100zM400 550c0 55 45 100 100 100s100 -45 100 -100s-45 -100 -100 -100s-100 45 -100 100zM400 50c0 55 45 100 100 100s100 -45 100 -100s-45 -100 -100 -100s-100 45 -100 100z" />
    <glyph glyph-name="dcroat" unicode="&#x111;" 
d="M150 550c0 55 45 100 100 100s100 -45 100 -100s-45 -100 -100 -100s-100 45 -100 100zM400 550c0 55 45 100 100 100s100 -45 100 -100s-45 -100 -100 -100s-100 45 -100 100zM400 300c0 55 45 100 100 100s100 -45 100 -100s-45 -100 -100 -100s-100 45 -100 100z
M400 50c0 55 45 100 100 100s100 -45 100 -100s-45 -100 -100 -100s-100 45 -100 100z" />
    <glyph glyph-name="scaron" unicode="&#x161;" 
d="M150 550c0 55 45 100 100 100s100 -45 100 -100s-45 -100 -100 -100s-100 45 -100 100zM400 300c0 55 45 100 100 100s100 -45 100 -100s-45 -100 -100 -100s-100 45 -100 100zM400 50c0 55 45 100 100 100s100 -45 100 -100s-45 -100 -100 -100s-100 45 -100 100z" />
    <glyph glyph-name="zcaron" unicode="&#x17e;" 
d="M150 300c0 55 45 100 100 100s100 -45 100 -100s-45 -100 -100 -100s-100 45 -100 100zM150 50c0 55 45 100 100 100s100 -45 100 -100s-45 -100 -100 -100s-100 45 -100 100zM400 550c0 55 45 100 100 100s100 -45 100 -100s-45 -100 -100 -100s-100 45 -100 100z
M400 50c0 55 45 100 100 100s100 -45 100 -100s-45 -100 -100 -100s-100 45 -100 100z" />
    <glyph glyph-name="ccaron" unicode="&#x10d;" 
d="M150 550c0 55 45 100 100 100s100 -45 100 -100s-45 -100 -100 -100s-100 45 -100 100zM400 50c0 55 45 100 100 100s100 -45 100 -100s-45 -100 -100 -100s-100 45 -100 100z" />
    <glyph glyph-name="percent" unicode="%" 
d="M150 50c0 55 45 100 100 100s100 -45 100 -100s-45 -100 -100 -100s-100 45 -100 100zM400 300c0 55 45 100 100 100s100 -45 100 -100s-45 -100 -100 -100s-100 45 -100 100zM400 50c0 55 45 100 100 100s100 -45 100 -100s-45 -100 -100 -100s-100 45 -100 100z" />
    <glyph glyph-name="dollar" unicode="$" 
d="M400 550c0 55 45 100 100 100s100 -45 100 -100s-45 -100 -100 -100s-100 45 -100 100zM400 50c0 55 45 100 100 100s100 -45 100 -100s-45 -100 -100 -100s-100 45 -100 100z" />
    <glyph glyph-name="numbersign" unicode="#" 
d="M150 50c0 55 45 100 100 100s100 -45 100 -100s-45 -100 -100 -100s-100 45 -100 100zM400 550c0 55 45 100 100 100s100 -45 100 -100s-45 -100 -100 -100s-100 45 -100 100zM400 300c0 55 45 100 100 100s100 -45 100 -100s-45 -100 -100 -100s-100 45 -100 100z
M400 50c0 55 45 100 100 100s100 -45 100 -100s-45 -100 -100 -100s-100 45 -100 100z" />
    <glyph glyph-name="sterling" unicode="&#xa3;" 
d="M400 550c0 55 45 100 100 100s100 -45 100 -100s-45 -100 -100 -100s-100 45 -100 100zM400 300c0 55 45 100 100 100s100 -45 100 -100s-45 -100 -100 -100s-100 45 -100 100zM460 50z" />
  </font>
</defs>
</svg>
